<?xml version="1.0" encoding="UTF-8"?>
<svg xmlns="http://www.w3.org/2000/svg" version="1.1" width="563" height="577" style="background: transparent;">

<path d="M0 0 C1 1 1 1 1.328125 3.78125 C0.91327099 7.85077027 -0.23815706 8.81848822 -3.25 11.5 C-10.09998036 17.95334613 -13.0460419 24.16955077 -16 33 C-15.49210938 32.55269531 -14.98421875 32.10539062 -14.4609375 31.64453125 C-13.02641483 30.38462276 -11.58873066 29.12830774 -10.1484375 27.875 C-8.89478543 26.78090365 -7.64692455 25.67997102 -6.4140625 24.5625 C0.95033482 18.05253552 8.58220247 15.5522525 18.29296875 15.65625 C22.68819798 16.21437435 24.23258908 17.55943507 27 21 C27.8171447 24.84058008 27.24509485 26.52941789 25.4375 30 C22.64030937 33.44269616 19.65303909 36.46266743 16 39 C15.34 39 14.68 39 14 39 C14 39.66 14 40.32 14 41 C14.54785156 41.07476562 15.09570312 41.14953125 15.66015625 41.2265625 C42.5369703 45.68418044 64.7513273 63.92010577 82 84 C85.87330497 83.44042547 87.58247135 81.71588342 90.3125 79 C107.58681885 62.97781373 128.04137475 57.24663184 151.140625 57.66015625 C168.44892765 58.47934339 184.49827516 68.54082102 196 81 C220.16171203 109.04811791 222.93707389 149.42021585 220.69140625 184.765625 C219.30878059 201.74321221 213.87719136 217.22086372 201 229 C196.94688358 231.92591836 192.72972807 234.75954522 188.16796875 236.83251953 C184.53162495 238.58575672 183.15994668 239.58585235 181.6875 243.3984375 C181.43600692 244.71990414 181.20791704 246.04598031 181 247.375 C177.866646 262.50487024 170.44286935 274.86707988 158.09375 284.1953125 C145.77390433 292.28444194 132.91211689 295.25148407 118.25 292.25 C116.82579431 291.85987987 115.40904519 291.44175471 114 291 C113.12988281 290.75507813 112.25976562 290.51015625 111.36328125 290.2578125 C102.42350561 287.43997527 95.95195699 282.24016804 89.625 275.4375 C87.36941559 272.76768767 87.36941559 272.76768767 85.140625 273.06640625 C82.19638539 274.35048155 80.41176872 276.24798461 78.125 278.5 C63.25251667 292.5246458 44.02321692 300.96548569 24.48950195 306.31640625 C22.76330278 306.79040426 21.04834605 307.30657309 19.34448242 307.85546875 C12.06543814 309.94014783 5.54318945 310.11786346 -1.98046875 309.8359375 C-3.45971329 309.78662331 -3.45971329 309.78662331 -4.96884155 309.73631287 C-9.08437655 309.59076361 -13.19580799 309.43570475 -17.30639648 309.18408203 C-28.47692803 308.06409371 -28.47692803 308.06409371 -38.85427856 311.19644165 C-42.41873368 314.60667856 -44.62662007 318.71989645 -47 323 C-48.80981445 325.19238281 -48.80981445 325.19238281 -50.50390625 326.90234375 C-51.01179687 327.41667969 -51.5196875 327.93101562 -52.04296875 328.4609375 C-52.54441406 328.94820313 -53.04585937 329.43546875 -53.5625 329.9375 C-54.11421875 330.47761719 -54.6659375 331.01773437 -55.234375 331.57421875 C-63.31167146 339.33143586 -71.47670159 343.23778451 -82 347 C-82.83015625 347.35578125 -83.6603125 347.7115625 -84.515625 348.078125 C-97.28959264 352.81815073 -112.72242014 350.39908767 -125.4609375 346.875 C-128.53387868 346.11524412 -130.87171655 345.65241295 -134 346 C-135.7074998 347.28062485 -137.37373596 348.61767557 -139 350 C-143.67822396 352.67327083 -148.76259897 352.63265242 -154 352 C-163.27432637 349.22435035 -169.14398714 341.65602826 -173.7109375 333.5234375 C-178.59078499 323.97076635 -179.88347277 313.53843197 -176.875 303.0625 C-174.37358629 296.72637188 -170.08239497 292.04119748 -164 289 C-156.37629432 287.81811267 -149.53937628 288.89814674 -143 293 C-141.95919577 293.89392675 -140.93666756 294.80976457 -139.9375 295.75 C-136.86429223 298.10394638 -134.96699428 298.83135098 -131.07421875 298.52734375 C-125.53211192 297.11833354 -122.13356977 293.6609642 -118.9765625 289.03515625 C-116.64383708 285.10760835 -114.44721287 281.34163862 -113 277 C-113.55429688 276.896875 -114.10859375 276.79375 -114.6796875 276.6875 C-124.17997478 273.87260006 -134.56864758 265.14702863 -140 257 C-143.17036587 257.58329242 -144.80898427 258.47040957 -147.125 260.6875 C-160.7598585 272.71488045 -178.11207381 277.77331194 -196 277 C-205.86009279 275.8477354 -215.40989271 270.30107323 -222 263 C-229.59970214 252.65341757 -233.90983131 242.69572555 -234.125 229.8125 C-234.27950392 225.16269842 -234.27950392 225.16269842 -236.453125 221.26953125 C-238.57547683 220.00561035 -240.75201317 219.02344448 -243 218 C-256.55311411 209.41636106 -264.72215137 198.34561827 -269 183 C-269.5722122 179.86505967 -269.90380081 176.73524595 -270.1875 173.5625 C-270.26935547 172.78068359 -270.35121094 171.99886719 -270.43554688 171.19335938 C-273.26072252 142.30059668 -265.16296739 111.08776373 -246.71142578 88.31811523 C-244.54994956 85.7986563 -242.29981187 83.39475823 -240 81 C-239.30132812 80.23558594 -238.60265625 79.47117187 -237.8828125 78.68359375 C-223.41115076 63.36920472 -204.48183865 55.59033758 -183.74365234 54.55078125 C-162.6267211 54.04463678 -139.51044063 64.35568305 -124.0625 78.5 C-123.051875 79.325 -122.04125 80.15 -121 81 C-117.62154669 80.60216344 -116.30030037 79.40485948 -114 77 C-113.34 77 -112.68 77 -112 77 C-112 76.34 -112 75.68 -112 75 C-109.97554724 73.22443049 -107.94716203 71.57183757 -105.8125 69.9375 C-105.17610596 69.44652832 -104.53971191 68.95555664 -103.8840332 68.44970703 C-101.93132823 66.95462569 -99.96854399 65.47414933 -98 64 C-97.45053711 63.58733887 -96.90107422 63.17467773 -96.33496094 62.74951172 C-75.3047418 47.13138462 -53.77295001 40.72500558 -28 38 C-27.85304688 36.76636719 -27.85304688 36.76636719 -27.703125 35.5078125 C-25.80013473 21.30100581 -21.16881949 10.66720727 -10.09765625 1.28125 C-6.57985614 -0.86742493 -4.02084788 -0.56432953 0 0 Z " fill="#0A0D09" transform="translate(309,20)"/>
<path d="M0 0 C-0.31728444 3.00396716 -0.57558684 4.58030255 -2.7578125 6.73828125 C-10.22899231 11.70673911 -18.02609957 15.90673111 -26 20 C-26 20.99 -26 21.98 -26 23 C-25.43192627 23.06993164 -24.86385254 23.13986328 -24.27856445 23.21191406 C8.61408104 27.34801545 35.95425091 40.52406326 56.6875 67.0625 C66.7343852 80.37473554 73.76377925 95.22526556 79 111 C79.37769531 112.07636719 79.75539063 113.15273437 80.14453125 114.26171875 C90.05838485 145.04293461 91.33119834 187.76120455 76.97265625 217.2890625 C62.3547785 245.61441276 36.17486475 262.44821874 6.625 272.1875 C4.42430206 272.81891273 2.21542951 273.42239671 0 274 C-1.71509766 274.45052734 -1.71509766 274.45052734 -3.46484375 274.91015625 C-18.38161709 278.1661017 -33.81742495 277.27094373 -49 277 C-50 274 -50 274 -49.28735352 272.09887695 C-48.90506592 271.40238037 -48.52277832 270.70588379 -48.12890625 269.98828125 C-47.51499023 268.85229492 -47.51499023 268.85229492 -46.88867188 267.69335938 C-46.45103516 266.90767578 -46.01339844 266.12199219 -45.5625 265.3125 C-45.12873047 264.51521484 -44.69496094 263.71792969 -44.24804688 262.89648438 C-43.17425237 260.92589446 -42.09135818 258.96090073 -41 257 C-40.37351562 257.42152344 -39.74703125 257.84304688 -39.1015625 258.27734375 C-38.28429687 258.82519531 -37.46703125 259.37304688 -36.625 259.9375 C-35.81289063 260.48277344 -35.00078125 261.02804687 -34.1640625 261.58984375 C-28.81876367 265.07297169 -23.2266265 264.51157729 -17 264 C-8.98802685 261.82681774 -3.37996241 255.39157963 1.0625 248.6875 C7.88661832 236.78198174 13.45499067 220.15750933 10.43359375 206.42578125 C8.95144765 201.37901255 8.95144765 201.37901255 5 198 C3.68 198 2.36 198 1 198 C1.350625 199.11375 1.70125 200.2275 2.0625 201.375 C2.45823509 204.56349417 2.13646566 205.78084825 0.4140625 208.546875 C-4.6433088 214.40277861 -10.11022362 218.53797306 -17 222 C-17.66386719 222.33902344 -18.32773437 222.67804688 -19.01171875 223.02734375 C-22.43851867 224.64039274 -25.21875906 225.34374918 -29 225 C-28.36684209 219.87475334 -27.31839344 215.03469229 -25.9375 210.0625 C-25.75123047 209.37865234 -25.56496094 208.69480469 -25.37304688 207.99023438 C-24.91910943 206.32579707 -24.46009084 204.66274688 -24 203 C-33.59258073 211.72819433 -37.98621571 226.47463338 -42.85717773 238.15405273 C-50.8755982 257.34974938 -59.28353058 276.12618297 -73 292 C-73.67417969 292.83015625 -74.34835938 293.6603125 -75.04296875 294.515625 C-84.71680811 306.00441055 -96.96706262 313.5690138 -111.6875 316.8125 C-122.22660504 317.40905312 -132.61979216 316.88268428 -142.8125 313.875 C-147.00417095 312.72434523 -150.70005467 312.13278413 -155 313 C-157.3978911 314.40523771 -159.56731411 316.00352477 -161.80859375 317.64453125 C-165.54138098 319.95340321 -167.68052957 319.76635766 -172 319 C-179.40473786 315.70551917 -183.72670948 308.28956768 -186.875 301.125 C-189.1823295 294.23047972 -188.97417008 286.3922741 -186.0390625 279.7265625 C-184.10156804 276.50711681 -182.23683978 274.9919014 -179 273 C-174.4801592 272.16299244 -171.77740226 272.88355864 -167.9375 275.1875 C-166.60987635 276.1034574 -165.29664633 277.04069255 -164 278 C-163.42765625 278.40734375 -162.8553125 278.8146875 -162.265625 279.234375 C-158.62213193 282.01208754 -156.75737848 284.80181807 -155 289 C-154.67 287.35 -154.34 285.7 -154 284 C-152.845 283.7525 -151.69 283.505 -150.5 283.25 C-147.32619834 282.48313787 -144.77497871 281.41725802 -141.9375 279.8125 C-139.09954196 278.35203037 -137.81607395 277.99014682 -134.5 277.8125 C-126.64318321 280.4782057 -121.47510878 287.28733684 -117 294 C-116.34 294 -115.68 294 -115 294 C-115.26594761 287.6172574 -117.34250604 283.42600818 -122 279 C-125.21560335 277.01600628 -128.50810388 275.43540394 -132 274 C-130.79823908 270.79345819 -129.47784894 268.02173909 -127.5625 265.1875 C-125.04198341 261.27249641 -123.49384811 257.40292075 -122 253 C-107.82041159 253.03360092 -97.94552321 255.45774899 -87 265 C-86.01 265 -85.02 265 -84 265 C-84.58385951 261.05894832 -86.27788893 258.86170651 -89 256 C-95.46836927 251.29081066 -100.94081298 248.71695074 -109.0625 248.8125 C-110.27035156 248.81894531 -111.47820312 248.82539063 -112.72265625 248.83203125 C-115.3799761 248.96822285 -117.46678401 249.30924819 -120 250 C-119.3033035 242.71913875 -118.08543059 235.6145586 -116.6875 228.4375 C-116.46457275 227.29087891 -116.24164551 226.14425781 -116.01196289 224.96289062 C-114.28677557 216.21684994 -112.41035812 207.58372259 -110 199 C-109.68095703 197.49179687 -109.68095703 197.49179687 -109.35546875 195.953125 C-108.57759413 193.07457295 -107.91721501 191.28769134 -106 189 C-95.50016979 183.41373936 -80.93087853 183.2418929 -69.6875 186.5 C-64.32082624 188.53992095 -59.96914602 191.56421557 -55.47265625 195.09765625 C-53.0721758 196.94447138 -50.62405006 198.49316625 -48 200 C-50.65606792 190.4824233 -56.78443512 186.68634335 -65 182 C-65.62648438 181.63261719 -66.25296875 181.26523438 -66.8984375 180.88671875 C-74.38108149 177.31468734 -85.26810853 177.76332162 -93.18359375 179.83203125 C-95.55057492 180.77108619 -97.76163242 181.79031023 -100 183 C-101.33287261 183.66758732 -102.66606769 184.33453264 -104 185 C-100.2258528 172.62515195 -92.72559249 164.51874277 -81.6875 158.0625 C-70.65587254 153.70115891 -58.56629164 155.68401614 -47.8203125 159.84375 C-43.10057194 161.97406091 -39.57355671 164.92799384 -35.859375 168.51171875 C-33.87892589 170.09691016 -32.47771143 170.58887532 -30 171 C-34.12521556 161.88110244 -39.24161638 157.49862431 -48 153 C-48.99773437 152.48373047 -48.99773437 152.48373047 -50.015625 151.95703125 C-59.37157276 148.03416339 -72.25979401 148.4277707 -81.5625 152.125 C-86.0176313 154.29068882 -90.14667233 156.86575208 -94.16015625 159.765625 C-96 161 -96 161 -99 162 C-98.00207533 159.49400083 -96.99677739 156.9922171 -95.96484375 154.5 C-95.62582031 153.675 -95.28679687 152.85 -94.9375 152 C-94.59589844 151.175 -94.25429687 150.35 -93.90234375 149.5 C-90.35231964 139.66443537 -89.96984071 124.76911754 -93.75 115 C-94.81569772 112.84027468 -94.81569772 112.84027468 -96 111 C-96.598125 110.030625 -97.19625 109.06125 -97.8125 108.0625 C-101.72514004 104.37343939 -106.01166601 102.84957897 -111.3125 102.4375 C-117.20243832 102.69793945 -121.54439206 105.27741143 -126 109 C-131.87805014 115.4740762 -135.85999357 122.88223144 -139 131 C-139.36867187 131.94230469 -139.73734375 132.88460937 -140.1171875 133.85546875 C-141.14519689 137.5171836 -141.26544754 140.69990576 -141.25 144.5 C-141.25515625 145.7684375 -141.2603125 147.036875 -141.265625 148.34375 C-141.00698139 151.90390317 -140.28821239 154.68745385 -139 158 C-138.34 158 -137.68 158 -137 158 C-136.96261719 156.96101562 -136.92523438 155.92203125 -136.88671875 154.8515625 C-136.173871 138.46197189 -132.14083218 124.02561123 -119.69921875 112.390625 C-116.3543066 109.65317965 -113.52770612 109.6078241 -109.32421875 109.6484375 C-105.34720698 110.25000231 -103.71646835 112.08476568 -101 115 C-99.29057104 117.45265894 -98.8834233 118.30053979 -99.375 121.25 C-99.58125 121.8275 -99.7875 122.405 -100 123 C-101.485 122.01 -101.485 122.01 -103 121 C-107.14773451 120.36729474 -109.54503307 120.11070737 -113.16015625 122.3203125 C-121.10901283 128.94683593 -125.00385315 137.28286236 -126.32421875 147.51171875 C-126.61310367 153.85722537 -125.17615308 159.47625551 -122 165 C-118.47320901 167.35119399 -116.97120515 167.21443452 -112.8125 167.125 C-111.72582031 167.10695312 -110.63914062 167.08890625 -109.51953125 167.0703125 C-108.68808594 167.04710937 -107.85664063 167.02390625 -107 167 C-107.4869406 172.13209763 -108.59257877 175.54120096 -111.25 179.9375 C-120.80243188 197.13187738 -124.138191 218.26544846 -126.54296875 237.609375 C-127.00880681 240.04606638 -127.780263 241.85165664 -129 244 C-134.52069343 243.03324262 -138.59781605 239.25957888 -143 236 C-144.546875 234.8553125 -144.546875 234.8553125 -146.125 233.6875 C-162.38799162 218.48513827 -171.05942126 196.9532646 -172.15234375 174.93017578 C-172.25214336 171.55644993 -172.29774764 168.18764657 -172.3125 164.8125 C-172.31805908 163.75643555 -172.32361816 162.70037109 -172.3293457 161.61230469 C-172.21069433 148.5058915 -169.97260507 136.61660076 -165.6875 124.25 C-165.30916016 123.10917969 -164.93082031 121.96835938 -164.54101562 120.79296875 C-162.19420779 113.87564345 -159.39132484 107.46030592 -156 101 C-155.53335938 99.98550781 -155.06671875 98.97101563 -154.5859375 97.92578125 C-140.60657513 67.75741537 -110.74884982 41.54023246 -79.75 30.125 C-77.50794007 29.39192198 -75.25819114 28.68176893 -73 28 C-72.06414062 27.70480469 -71.12828125 27.40960938 -70.1640625 27.10546875 C-60.66261836 24.40407777 -50.80476315 23.8235226 -41 23 C-40.01 19.7 -39.02 16.4 -38 13 C-37.01 13 -36.02 13 -35 13 C-35.33 15.64 -35.66 18.28 -36 21 C-32.42083823 19.31568858 -30.4592066 17.43421956 -28.25 14.25 C-21.20697924 4.41873965 -12.03694812 -0.73695601 0 0 Z " fill="#9EC859" transform="translate(328,44)"/>
<path d="M0 0 C4.05881461 3.70243089 5.7262364 7.1097745 6.23828125 12.515625 C6.44064056 19.9709679 5.4439153 25.08527096 0.45703125 30.75390625 C-6.02545356 36.91004171 -14.08900088 37.25091416 -22.625 37.9375 C-30.04231481 38.59599204 -37.09954744 39.67313743 -44.34765625 41.4140625 C-47 42 -47 42 -50 42 C-50 44.31 -50 46.62 -50 49 C-49.45472656 48.855625 -48.90945312 48.71125 -48.34765625 48.5625 C-44.24113638 47.55166434 -40.67141971 46.91458183 -36.4375 47.1875 C-32.78913486 47.30701541 -31.11297972 46.65784351 -28.1875 44.5 C-23.11299927 40.94481086 -17.98166719 41.11680082 -12 42 C-7.49542689 43.4847073 -4.24518648 45.55753774 -1 49 C-0.13375 48.071875 -0.13375 48.071875 0.75 47.125 C5.66901268 42.4792658 10.51098237 42.65738603 16.98046875 42.609375 C22.14763379 42.43421686 24.92005141 41.08077751 29 38 C34.72334029 36.0922199 40.94446322 36.0656651 46.4375 38.5625 C47.283125 39.036875 48.12875 39.51125 49 40 C51.85262908 39.53139563 54.43316955 38.46556071 57.125 37.4375 C63.76596352 35.2347502 70.00941897 34.75150904 76.4375 37.8125 C78.45916843 38.91407716 79.92447724 39.92255555 81.53515625 41.57421875 C83.05446849 43.25987117 83.05446849 43.25987117 86 44 C85.95875 42.741875 85.9175 41.48375 85.875 40.1875 C85.95387389 27.5676783 89.49407336 16.40732083 98.25 7.0625 C108.12471387 -2.12832322 118.58671735 -3.58751711 131.52734375 -3.3359375 C138.27142174 -2.99528484 143.23773295 -0.92743353 147.89453125 4.0078125 C152.68803288 10.09230403 153.80714384 15.32644941 153 23 C151.70366488 27.34827837 149.67570743 30.28964091 146.5625 33.5625 C141.75222047 35.50348999 137.90290887 34.84765211 132.828125 34.1640625 C131.89484375 34.10992187 130.9615625 34.05578125 130 34 C127.8614515 36.1385485 127.57344937 37.13275314 127 40 C127.845625 39.896875 128.69125 39.79375 129.5625 39.6875 C134.13454663 40.1031406 136.54189139 42.13529464 140 45 C140.53109375 44.72285156 141.0621875 44.44570313 141.609375 44.16015625 C142.31578125 43.79792969 143.0221875 43.43570313 143.75 43.0625 C144.44609375 42.70285156 145.1421875 42.34320313 145.859375 41.97265625 C153.92133869 38.30946472 162.73108742 39.44727293 170.80859375 42.44140625 C173.32952297 43.08399605 174.58950338 42.92983517 177 42 C177.78375 41.319375 178.5675 40.63875 179.375 39.9375 C184.30766449 36.44141048 191.2720449 37.40650104 197 38 C199.27734375 39.0390625 199.27734375 39.0390625 201 40 C203.70804671 39.72225162 205.77555426 39.10344021 208.24609375 37.96484375 C211.516396 36.81907828 214.16693857 36.76877738 217.625 36.8125 C219.31496094 36.82216797 219.31496094 36.82216797 221.0390625 36.83203125 C224 37 224 37 227 38 C227.0825 37.236875 227.165 36.47375 227.25 35.6875 C228 33 228 33 229.6875 31.1875 C232.60024146 29.6917679 234.76999584 29.77977244 238 30 C238.02578125 29.27554688 238.0515625 28.55109375 238.078125 27.8046875 C238.42854815 21.8315657 238.77148607 17.56234397 243 13 C248.62858442 8.24697316 254.18195422 8.40670867 261.390625 8.61328125 C267.38588321 9.25563034 270.91873756 10.98180612 275.19140625 15.125 C277.6201253 18.98577153 277.45685955 21.86104171 277.25 26.3125 C277.23195313 27.05306641 277.21390625 27.79363281 277.1953125 28.55664062 C277.14847337 30.3716571 277.07673789 32.18600166 277 34 C280.08417343 34.89517959 282.79420437 35.38593045 286 35 C288.08002553 33.22027539 289.54528854 31.25332435 291.20703125 29.08203125 C294.89042168 24.80480446 299.40220703 23.33701098 304.890625 22.625 C312.41830341 22.31617217 319.81656612 23.39492104 325.6953125 28.4609375 C329.73097955 33.00394555 330.36304515 36.87968548 330.28515625 42.84375 C329.66029316 47.56874211 327.49110979 51.73324067 323.87109375 54.80859375 C321.26159613 57.86481122 321.62823783 59.85729116 321.8125 63.8125 C321.95774498 67.41222023 322.04711469 70.69297232 321.5 74.25830078 C320.99033686 78.07231311 320.94974517 81.62846829 321.04296875 85.47265625 C321.06534261 86.88084552 321.08679957 88.28904961 321.10742188 89.69726562 C321.14453992 91.88526351 321.18776962 94.07248711 321.24682617 96.26000977 C321.30155566 98.39350388 321.33045448 100.52613346 321.35546875 102.66015625 C321.38278076 103.92480713 321.41009277 105.18945801 321.43823242 106.49243164 C320.91621732 110.6705882 319.62308652 112.74635531 317 116 C310.55299583 120.96956572 304.96671973 121.68183637 297 121 C292.40502649 119.8630185 288.71166988 117.9186479 285 115 C284.09507812 115.63228516 284.09507812 115.63228516 283.171875 116.27734375 C282.37265625 116.82519531 281.5734375 117.37304688 280.75 117.9375 C279.96109375 118.48277344 279.1721875 119.02804687 278.359375 119.58984375 C271.93744075 123.42811902 263.28011176 122.92814578 256.171875 121.38671875 C249.72928628 119.14367022 245.98905762 115.44202563 242 110 C241.113125 110.495 240.22625 110.99 239.3125 111.5 C233.7673811 113.85384639 227.89673527 113.78926701 222 113 C218.55276131 111.59243184 216.7661853 109.45910985 215.01953125 106.1328125 C213.24408921 101.84841246 212.47856829 97.59425558 212 93 C212.03480469 93.79664063 212.06960938 94.59328125 212.10546875 95.4140625 C212.38544728 106.37322205 212.38544728 106.37322205 209 111 C204.19655584 115.92453939 200.29721945 117.13791036 193.5625 117.25 C189.01013929 117.23792477 186.85147463 116.42092691 183 114 C180.06255722 114.69116301 177.68580071 115.65709965 175 117 C169.70414964 117.5202043 165.40207516 117.87973343 160.8125 115 C160.214375 114.34 159.61625 113.68 159 113 C156.3609058 113.98023499 154.10081921 114.92988805 151.78125 116.54296875 C146.33729636 119.39492761 139.96067825 118.68898614 134 118 C129.44498078 116.2491016 126.3615841 113.45271138 123 110 C122.83177734 111.10214844 122.83177734 111.10214844 122.66015625 112.2265625 C120.58550657 120.94254635 113.23522608 127.71095462 105.8984375 132.3203125 C97.430972 136.4813007 86.07153848 136.55761982 77.015625 134.234375 C72.19697917 132.19696099 67.81562261 129.39332072 64.625 125.1875 C63.66379385 121.82327848 64.17155054 119.37297281 65 116 C67.0625 113.0625 67.0625 113.0625 69 111 C67.88625 110.1646875 67.88625 110.1646875 66.75 109.3125 C61.62124919 104.27117108 60.65300369 95.76078511 59 89 C59.2165625 90.19496094 59.2165625 90.19496094 59.4375 91.4140625 C59.623125 92.47367187 59.80875 93.53328125 60 94.625 C60.185625 95.66914063 60.37125 96.71328125 60.5625 97.7890625 C61.67166417 105.92953523 61.67166417 105.92953523 59 110.1875 C55.32353198 114.12214695 51.01799894 115.6727471 45.73046875 116.24609375 C41.80500606 116.35977836 39.02385202 116.00795067 35.25 114.75 C34.1775 114.5025 33.105 114.255 32 114 C29.20688307 115.71767582 29.20688307 115.71767582 27 118 C20.10579542 120.29806819 15.27858284 118.95462722 9 116 C5.83457396 116 4.77293901 116.47563174 2.0625 117.9375 C-4.6651668 121.55410701 -11.3519136 121.95411482 -18.81640625 120.421875 C-27.55763918 117.74722793 -32.27881623 112.47678621 -36.9375 104.8125 C-39.06039606 99.19306924 -39.10213518 93.92384063 -39 88 C-43.455 88.99 -43.455 88.99 -48 90 C-47.21021997 92.39646993 -46.41824215 94.79217608 -45.625 97.1875 C-45.40328125 97.86103516 -45.1815625 98.53457031 -44.953125 99.22851562 C-43.99586773 102.11436474 -43.01561374 104.96216465 -41.85546875 107.7734375 C-40.1939894 112.0978358 -40.57887214 115.83020039 -42.125 120.125 C-45.99783851 126.06335238 -51.12985341 129.47461461 -58 131 C-67.04617876 131.96404533 -73.98787084 130.60120403 -81.1875 125 C-89.64524233 117.03879831 -91.72043661 104.95415997 -94 94 C-94.15243164 93.3095459 -94.30486328 92.6190918 -94.46191406 91.90771484 C-97.03660974 79.86559068 -97.3133228 67.82629473 -97.375 55.5625 C-97.38285522 54.79095581 -97.39071045 54.01941162 -97.39880371 53.2244873 C-97.50150965 40.26079205 -97.5286369 26.86975755 -88 17 C-87.29810547 16.22269531 -87.29810547 16.22269531 -86.58203125 15.4296875 C-71.13839892 0.26396115 -18.66573843 -14.28410969 0 0 Z " fill="#070F0B" transform="translate(166,414)"/>
<path d="M0 0 C0.79132324 -0.0093457 1.58264648 -0.01869141 2.39794922 -0.02832031 C17.2515576 0.05171986 31.5652418 6.32359469 42.1953125 16.703125 C50.63782778 26.29288103 58.84379661 38.46612026 61.3125 51.1875 C62.14037546 55.16261627 63.25277109 58.9917219 64.4375 62.875 C70.9837322 85.76238646 72.85925477 119.62689713 61.4375 141.25 C59.60292034 144.39566744 57.62020385 147.33768446 55.4375 150.25 C54.839375 151.136875 54.24125 152.02375 53.625 152.9375 C49.68161971 157.1062163 44.7543836 159.99111527 39.734375 162.71875 C34.22684086 165.72845395 34.22684086 165.72845395 30.4375 170.625 C29.57628655 173.74689877 28.76954128 176.87401304 28.015625 180.0234375 C24.70048396 192.79121043 18.44369164 203.62512683 7.4375 211.25 C-3.39496666 217.54723309 -16.63700019 218.10947913 -28.75 215.5859375 C-37.87209817 212.30768347 -45.02471388 205.16617889 -51.5625 198.25 C-50.29205897 195.50727216 -48.90708326 193.4026745 -46.9375 191.125 C-38.48789387 179.9831174 -34.23436962 165.79216026 -31.5625 152.25 C-31.33820313 151.18394531 -31.11390625 150.11789063 -30.8828125 149.01953125 C-25.81870328 120.5425883 -29.70365759 87.74666519 -39.09399414 60.54785156 C-39.65929018 57.77527924 -39.35683738 55.95367986 -38.5625 53.25 C-36.625 50.4375 -36.625 50.4375 -34.5625 48.25 C-33.9025 48.25 -33.2425 48.25 -32.5625 48.25 C-32.2325 47.26 -31.9025 46.27 -31.5625 45.25 C-21.84463984 36.43958009 -11.05405587 30.23752979 2.39453125 30.83203125 C9.95730468 31.87082041 16.42182395 35.50983741 21.4375 41.25 C30.60430871 53.89327767 33.90261586 67.1175098 36.4375 82.25 C37.29485326 64.34084299 34.32106195 48.65895006 22.6875 34.375 C16.42895918 27.67199466 8.81949667 24.52366085 -0.25 24.0625 C-15.09618924 24.39425842 -27.7366857 31.41756566 -38.5625 41.25 C-39.25085938 41.98863281 -39.93921875 42.72726563 -40.6484375 43.48828125 C-42.5625 45.25 -42.5625 45.25 -45.5625 45.25 C-46.90576531 42.67141033 -48.23724665 40.08782579 -49.5625 37.5 C-49.9440625 36.77039063 -50.325625 36.04078125 -50.71875 35.2890625 C-51.0796875 34.58007812 -51.440625 33.87109375 -51.8125 33.140625 C-52.14765625 32.49125977 -52.4828125 31.84189453 -52.828125 31.17285156 C-53.5625 29.25 -53.5625 29.25 -53.5625 25.25 C-40.13131055 9.37926798 -20.50566046 0.16668042 0 0 Z " fill="#8AC34A" transform="translate(452.5625,86.75)"/>
<path d="M0 0 C8.96747262 6.51782157 8.96747262 6.51782157 11.12744141 11.72509766 C10.60794922 12.41474609 10.08845703 13.10439453 9.55322266 13.81494141 C5.27301852 19.58253625 1.40993 25.33371362 -1.87255859 31.72509766 C-5.22891738 30.60631139 -5.67309381 29.93372525 -7.74755859 27.22509766 C-15.35250616 18.26672722 -27.15702601 10.57046334 -38.87255859 8.72509766 C-47.6480657 8.11954796 -55.18457307 8.01519495 -62.87255859 12.72509766 C-63.94505859 13.36447266 -65.01755859 14.00384766 -66.12255859 14.66259766 C-69.01407676 16.83123628 -71.41049326 19.07837743 -73.87255859 21.72509766 C-74.80068359 22.65322266 -75.72880859 23.58134766 -76.68505859 24.53759766 C-86.03774462 35.56213688 -91.10311548 50.53019885 -91.87255859 64.72509766 C-91.53224609 63.58814453 -91.19193359 62.45119141 -90.84130859 61.27978516 C-85.61725717 44.38709249 -78.40796477 28.8270384 -63.05615234 18.90478516 C-54.72296202 14.5581136 -46.12405371 13.36061074 -36.98974609 15.99072266 C-25.35303527 20.02707254 -13.81293468 28.7244012 -7.87255859 39.72509766 C-8.26965905 44.30390904 -10.31824524 48.36524185 -12.12255859 52.53759766 C-27.03565749 88.13438305 -28.16550558 124.85167292 -13.71972656 160.86914062 C-12.82896307 162.94748345 -12.82896307 162.94748345 -11.03271484 165.51025391 C-9.87255859 167.72509766 -9.87255859 167.72509766 -10.37255859 169.79150391 C-18.17194059 179.84539476 -32.78283984 185.64203711 -44.87255859 188.41259766 C-54.64054494 189.43009623 -63.31493995 188.56305934 -71.64990234 182.80712891 C-77.42044335 177.90433843 -81.54485075 172.51542043 -84.87255859 165.72509766 C-85.22576172 165.01869141 -85.57896484 164.31228516 -85.94287109 163.58447266 C-87.64060764 158.36286278 -87.96825557 152.82834509 -88.55224609 147.38525391 C-89.21265805 142.09445354 -89.72759083 138.43742569 -93.87255859 134.72509766 C-96.11504358 133.3663506 -98.29387296 132.15423023 -100.62255859 130.97509766 C-111.85658335 124.87612861 -117.37001426 116.67463292 -121.58349609 104.70556641 C-123.37100828 98.55289765 -123.56638666 92.08910005 -123.87255859 85.72509766 C-123.92669922 84.69255859 -123.98083984 83.66001953 -124.03662109 82.59619141 C-124.7987121 54.91843158 -113.24072539 26.41468891 -94.48632812 6.23339844 C-67.71740628 -21.49122813 -30.75920153 -20.94192313 0 0 Z " fill="#E2F4CC" transform="translate(171.87255859375,99.27490234375)"/>
<path d="M0 0 C2.35355045 1.96063056 4.60624401 3.98510626 6.82421875 6.09765625 C8.95178189 8.09126822 8.95178189 8.09126822 11.59375 9.4453125 C16.09648513 12.35454721 17.53417837 17.00779601 19 22 C20.06094111 30.4052145 19.34939395 35.7870459 15 43 C9.53969247 52.13537952 4.98521304 61.21960937 0.98495483 71.07504272 C-4.31628808 84.09741172 -9.89163778 96.8435373 -17 109 C-17.55349121 109.95011963 -17.55349121 109.95011963 -18.11816406 110.91943359 C-29.472306 130.11143475 -44.06993878 146.23146259 -66 153 C-77.4739515 155.20652913 -89.64228308 154.17112958 -100.8125 150.875 C-105.00417095 149.72434523 -108.70005467 149.13278413 -113 150 C-115.3978911 151.40523771 -117.56731411 153.00352477 -119.80859375 154.64453125 C-123.54138098 156.95340321 -125.68052957 156.76635766 -130 156 C-137.40473786 152.70551917 -141.72670948 145.28956768 -144.875 138.125 C-147.1823295 131.23047972 -146.97417008 123.3922741 -144.0390625 116.7265625 C-142.10156804 113.50711681 -140.23683978 111.9919014 -137 110 C-132.4801592 109.16299244 -129.77740226 109.88355864 -125.9375 112.1875 C-124.60987635 113.1034574 -123.29664633 114.04069255 -122 115 C-121.42765625 115.40734375 -120.8553125 115.8146875 -120.265625 116.234375 C-116.62213193 119.01208754 -114.75737848 121.80181807 -113 126 C-112.67 124.35 -112.34 122.7 -112 121 C-110.845 120.7525 -109.69 120.505 -108.5 120.25 C-105.32619834 119.48313787 -102.77497871 118.41725802 -99.9375 116.8125 C-97.09954196 115.35203037 -95.81607395 114.99014682 -92.5 114.8125 C-84.64318321 117.4782057 -79.47510878 124.28733684 -75 131 C-74.34 131 -73.68 131 -73 131 C-73.26594761 124.6172574 -75.34250604 120.42600818 -80 116 C-83.21560335 114.01600628 -86.50810388 112.43540394 -90 111 C-88.79823908 107.79345819 -87.47784894 105.02173909 -85.5625 102.1875 C-83.04198341 98.27249641 -81.49384811 94.40292075 -80 90 C-65.82041159 90.03360092 -55.94552321 92.45774899 -45 102 C-44.01 102 -43.02 102 -42 102 C-42.58385951 98.05894832 -44.27788893 95.86170651 -47 93 C-53.46836927 88.29081066 -58.94081298 85.71695074 -67.0625 85.8125 C-68.27035156 85.81894531 -69.47820312 85.82539063 -70.72265625 85.83203125 C-73.3799761 85.96822285 -75.46678401 86.30924819 -78 87 C-77.3033035 79.71913875 -76.08543059 72.6145586 -74.6875 65.4375 C-74.46457275 64.29087891 -74.24164551 63.14425781 -74.01196289 61.96289062 C-72.28677557 53.21684994 -70.41035812 44.58372259 -68 36 C-67.68095703 34.49179688 -67.68095703 34.49179688 -67.35546875 32.953125 C-66.57759413 30.07457295 -65.91721501 28.28769134 -64 26 C-53.50016979 20.41373936 -38.93087853 20.2418929 -27.6875 23.5 C-22.32082624 25.53992095 -17.96914602 28.56421557 -13.47265625 32.09765625 C-11.0721758 33.94447138 -8.62405006 35.49316625 -6 37 C-8.65606792 27.4824233 -14.78443512 23.68634335 -23 19 C-23.62648438 18.63261719 -24.25296875 18.26523438 -24.8984375 17.88671875 C-32.38108149 14.31468734 -43.26810853 14.76332162 -51.18359375 16.83203125 C-53.55057492 17.77108619 -55.76163242 18.79031023 -58 20 C-59.33287261 20.66758732 -60.66606769 21.33453264 -62 22 C-58.2258528 9.62515195 -50.72559249 1.51874277 -39.6875 -4.9375 C-27.15824458 -9.89092656 -11.13810704 -7.36658961 0 0 Z " fill="#D3EBB5" transform="translate(286,207)"/>
<path d="M0 0 C11.5405325 7.21567811 17.68551785 19.29724219 20.98046875 32.23828125 C21.42712891 33.91857422 21.42712891 33.91857422 21.8828125 35.6328125 C26.68011454 56.74536294 26.09213849 80.15103709 15.75 99.5 C13.26706105 103.34225211 10.29950559 106.56124237 7.16015625 109.875 C1.14381084 116.39809852 -1.79755692 122.74760839 -4.01953125 131.23828125 C-7.16114143 142.19805375 -11.29230051 151.64354855 -21.01953125 158.23828125 C-27.27283927 160.32271726 -34.10314178 160.51803188 -40.1796875 157.8515625 C-44.98848107 154.86790996 -48.75901287 151.92198202 -52.01953125 147.23828125 C-52.01953125 143.41398451 -50.69183981 140.4370597 -49.20703125 136.98828125 C-47.19441673 132.14772297 -45.96375234 127.27770795 -44.83203125 122.17578125 C-44.58199341 121.06058105 -44.58199341 121.06058105 -44.3269043 119.92285156 C-37.91920736 90.00051949 -41.62019702 55.30046394 -51.55102539 26.53613281 C-52.11632143 23.76356049 -51.81386863 21.94196111 -51.01953125 19.23828125 C-49.08203125 16.42578125 -49.08203125 16.42578125 -47.01953125 14.23828125 C-46.35953125 14.23828125 -45.69953125 14.23828125 -45.01953125 14.23828125 C-44.68953125 13.24828125 -44.35953125 12.25828125 -44.01953125 11.23828125 C-32.11537035 0.44571432 -15.724317 -8.33474726 0 0 Z " fill="#E3F4CD" transform="translate(465.01953125,120.76171875)"/>
<path d="M0 0 C8.96747262 6.51782157 8.96747262 6.51782157 11.12744141 11.72509766 C10.60794922 12.41474609 10.08845703 13.10439453 9.55322266 13.81494141 C5.27301852 19.58253625 1.40993 25.33371362 -1.87255859 31.72509766 C-5.22891738 30.60631139 -5.67309381 29.93372525 -7.74755859 27.22509766 C-15.35250616 18.26672722 -27.15702601 10.57046334 -38.87255859 8.72509766 C-47.6480657 8.11954796 -55.18457307 8.01519495 -62.87255859 12.72509766 C-63.94505859 13.36447266 -65.01755859 14.00384766 -66.12255859 14.66259766 C-69.01407676 16.83123628 -71.41049326 19.07837743 -73.87255859 21.72509766 C-74.80068359 22.65322266 -75.72880859 23.58134766 -76.68505859 24.53759766 C-88.35689412 38.29584937 -92.04912398 55.81933822 -92.12255859 73.28759766 C-92.14318359 74.48707031 -92.16380859 75.68654297 -92.18505859 76.92236328 C-92.24813512 91.53246445 -89.55329748 104.85098619 -79.37255859 115.72509766 C-73.30238421 122.21947724 -70.0525965 128.11001333 -68.93505859 136.97509766 C-67.60473116 147.3003913 -64.19858993 156.94899292 -55.80224609 163.49072266 C-48.86982414 167.92522739 -41.25917087 167.74655895 -33.23583984 166.22509766 C-28.13966706 164.65978106 -22.82885414 162.3584303 -18.87255859 158.72509766 C-17.74310862 155.56048672 -17.74310862 155.56048672 -17.87255859 152.72509766 C-15.92947661 155.63972064 -14.26022025 158.56711102 -12.62255859 161.66259766 C-12.06052734 162.70287109 -11.49849609 163.74314453 -10.91943359 164.81494141 C-9.87255859 167.72509766 -9.87255859 167.72509766 -10.38818359 169.85791016 C-18.32289306 179.83893944 -32.73953934 185.63211408 -44.87255859 188.41259766 C-54.64054494 189.43009623 -63.31493995 188.56305934 -71.64990234 182.80712891 C-77.42044335 177.90433843 -81.54485075 172.51542043 -84.87255859 165.72509766 C-85.22576172 165.01869141 -85.57896484 164.31228516 -85.94287109 163.58447266 C-87.64060764 158.36286278 -87.96825557 152.82834509 -88.55224609 147.38525391 C-89.21265805 142.09445354 -89.72759083 138.43742569 -93.87255859 134.72509766 C-96.11504358 133.3663506 -98.29387296 132.15423023 -100.62255859 130.97509766 C-111.85658335 124.87612861 -117.37001426 116.67463292 -121.58349609 104.70556641 C-123.37100828 98.55289765 -123.56638666 92.08910005 -123.87255859 85.72509766 C-123.92669922 84.69255859 -123.98083984 83.66001953 -124.03662109 82.59619141 C-124.7987121 54.91843158 -113.24072539 26.41468891 -94.48632812 6.23339844 C-67.71740628 -21.49122813 -30.75920153 -20.94192313 0 0 Z " fill="#8AC34C" transform="translate(171.87255859375,99.27490234375)"/>
<path d="M0 0 C2.18620246 1.89470879 2.88825406 3.18673786 3.28125 6.046875 C3.48546787 11.11828539 2.77374431 14.62601859 0 19 C-2.43604259 21.43604259 -3.23853912 21.30070064 -6.59375 21.4921875 C-7.53331543 21.55519043 -8.47288086 21.61819336 -9.44091797 21.68310547 C-10.45041504 21.74643066 -11.45991211 21.80975586 -12.5 21.875 C-33.3936463 22.94012369 -33.3936463 22.94012369 -52 31 C-54.21474082 35.84016207 -54.41221956 40.64414749 -54.625 45.875 C-54.66367188 46.65875 -54.70234375 47.4425 -54.7421875 48.25 C-54.83566622 50.16631367 -54.91888495 52.08312319 -55 54 C-54.29875 53.73445313 -53.5975 53.46890625 -52.875 53.1953125 C-36.24918642 47.00581125 -36.24918642 47.00581125 -30 48 C-27.625 49.8125 -27.625 49.8125 -26 53 C-25.3513805 57.86100228 -25.38723669 62.30588968 -27.0625 66.9375 C-32.79818297 73.04322704 -41.10896658 74.99525097 -49 77 C-49.99 77 -50.98 77 -52 77 C-51.00766673 84.82017857 -49.21560089 92.06796796 -46.58911133 99.47851562 C-45.27192005 103.3607636 -44.61511319 106.07850929 -46 110 C-48.4694472 112.86774514 -50.3244261 114.81616905 -54.171875 115.23828125 C-60.01846537 115.40659218 -63.43192863 115.02425335 -68 111 C-81.40607705 97.59392295 -82.16200077 68.56096402 -82.1875 50.875 C-81.9662739 21.15696014 -81.9662739 21.15696014 -76.375 15.296875 C-74.33127955 13.66519496 -72.25487592 12.32342975 -70 11 C-69.30261719 10.57074219 -68.60523437 10.14148438 -67.88671875 9.69921875 C-54.97870492 2.49837511 -39.41815904 0.27009313 -25 -2 C-23.47632813 -2.2784375 -23.47632813 -2.2784375 -21.921875 -2.5625 C-14.62613236 -3.65491066 -6.20338061 -4.57091203 0 0 Z " fill="#97CB38" transform="translate(160,419)"/>
<path d="M0 0 C3.38232988 2.71573932 4.88593065 5.18725587 5.5 9.5625 C4.97314369 13.18463713 4.36668849 15.21068856 2 18 C0.68 18 -0.64 18 -2 18 C-2.33 17.67 -2.66 17.34 -3 17 C-4.60048202 16.87464348 -6.20715928 16.82425213 -7.8125 16.8125 C-8.68519531 16.79832031 -9.55789063 16.78414063 -10.45703125 16.76953125 C-13.15245006 17.01381652 -14.73918489 17.53325194 -17 19 C-18.19838209 21.32854463 -18.19838209 21.32854463 -19 24 C-19.33515625 24.75023437 -19.6703125 25.50046875 -20.015625 26.2734375 C-21.12789345 29.35424457 -21.40985586 32.04948053 -21.625 35.3125 C-21.69976562 36.38113281 -21.77453125 37.44976562 -21.8515625 38.55078125 C-21.90054688 39.35902344 -21.94953125 40.16726563 -22 41 C-21.01 40.67 -20.02 40.34 -19 40 C-17.50323294 39.88340402 -16.00124939 39.82501041 -14.5 39.8125 C-13.33984375 39.79123047 -13.33984375 39.79123047 -12.15625 39.76953125 C-10 40 -10 40 -7 42 C-6.47702199 46.55737983 -6.36301637 48.87302897 -8.625 52.875 C-12.99801822 56.78770051 -17.27757544 57.27249641 -23 57 C-22.93071289 57.5971582 -22.86142578 58.19431641 -22.79003906 58.80957031 C-20.9199314 75.97329861 -19.36741545 95.92637626 -29.328125 110.94140625 C-33.2070348 115.71754051 -37.96182032 118.72269276 -44 120 C-51.06404248 120.60859443 -56.57696386 120.03634436 -63 117 C-65 115 -65 115 -65.01953125 113.0859375 C-63.03836235 109.03251148 -58.11176866 107.82549426 -54.19921875 105.9765625 C-48.7546048 102.61273508 -46.97951666 98.52761628 -45.26171875 92.546875 C-43.63872158 85.43953195 -43.66479343 78.50655882 -43.8125 71.25 C-43.82603516 69.96867187 -43.83957031 68.68734375 -43.85351562 67.3671875 C-43.88847295 64.24433305 -43.9375391 61.12240459 -44 58 C-45.3921875 57.814375 -45.3921875 57.814375 -46.8125 57.625 C-50 57 -50 57 -53 55 C-54.1845131 51.44646071 -54.26641894 48.72986522 -54 45 C-52.875 43.0625 -52.875 43.0625 -51 42 C-49.00045367 41.95740315 -46.99946959 41.95394176 -45 42 C-45.03480469 41.05640625 -45.06960938 40.1128125 -45.10546875 39.140625 C-45.3601873 27.05968786 -44.72293431 16.19723098 -36 7 C-35.48566406 6.44570313 -34.97132813 5.89140625 -34.44140625 5.3203125 C-25.54857916 -3.25262872 -10.97233306 -6.47148691 0 0 Z " fill="#96CA37" transform="translate(305,420)"/>
<path d="M0 0 C3.35897765 2.0363033 5.17948822 3.67548233 7.3828125 6.98046875 C7.66992188 9.86865234 7.66992188 9.86865234 7.7265625 13.37890625 C7.75621094 14.66410156 7.78585937 15.94929688 7.81640625 17.2734375 C7.83956781 18.6340975 7.86169885 19.99477543 7.8828125 21.35546875 C8.02898784 30.08299611 8.39880739 38.49903141 9.96289062 47.10009766 C10.40546981 50.13588206 10.59152851 52.91804545 10.3828125 55.98046875 C7.68175429 59.09077821 5.93925974 59.88110317 1.8828125 60.60546875 C-1.97563297 59.91646063 -3.33034709 58.87429431 -5.6171875 55.71484375 C-7.04222354 53.24329687 -7.89667669 50.73151001 -8.6171875 47.98046875 C-9.143125 49.27984375 -9.143125 49.27984375 -9.6796875 50.60546875 C-12.4944525 55.50860778 -16.18237473 58.64132173 -21.1171875 61.35546875 C-25.96194151 62.56665725 -29.33721562 62.65810092 -33.8046875 60.29296875 C-39.39975633 55.69257883 -42.21960936 51.04937848 -43.6171875 43.98046875 C-44.27528322 36.20782467 -44.51007516 28.88720491 -40.6171875 21.98046875 C-38.96078896 20.69215878 -37.2362689 19.62590932 -35.44921875 18.52734375 C-32.28804862 15.85821076 -30.86227493 12.14737387 -29.015625 8.5078125 C-23.55657309 -1.35812768 -9.99423233 -3.89327558 0 0 Z " fill="#96C937" transform="translate(334.6171875,461.01953125)"/>
<path d="M0 0 C2.71265691 3.93095193 2.19427448 7.65683624 2.015625 12.30859375 C1.99757813 13.19675781 1.97953125 14.08492188 1.9609375 15 C1.91389874 17.18730223 1.84819509 19.37239191 1.765625 21.55859375 C2.51328125 21.74035156 3.2609375 21.92210937 4.03125 22.109375 C5.01609375 22.36074219 6.0009375 22.61210937 7.015625 22.87109375 C8.47742188 23.23654297 8.47742188 23.23654297 9.96875 23.609375 C12.8110363 24.57400569 14.61223221 25.47596974 16.765625 27.55859375 C17.13596306 30.95335931 17.00888402 33.63420949 16.140625 36.93359375 C14.765625 38.55859375 14.765625 38.55859375 12.203125 39.37109375 C9.32558164 39.52805066 6.89044427 39.40941538 4.05078125 39.0703125 C3.24648682 38.97580811 2.44219238 38.88130371 1.61352539 38.78393555 C0.6988147 38.67239136 0.6988147 38.67239136 -0.234375 38.55859375 C-0.28396448 43.02431739 -0.320184 47.48989336 -0.34423828 51.95581055 C-0.35427045 53.47374261 -0.36789938 54.99165548 -0.38525391 56.50952148 C-0.40962535 58.69650015 -0.42088595 60.88322239 -0.4296875 63.0703125 C-0.44016113 64.38475342 -0.45063477 65.69919434 -0.46142578 67.0534668 C-0.24643476 70.37241964 0.32336677 72.59173382 1.765625 75.55859375 C6.5122175 75.10219062 9.02259094 74.39813683 12.765625 71.55859375 C14.953125 71.74609375 14.953125 71.74609375 16.765625 72.55859375 C18.49266444 76.01267263 18.12096898 79.77483842 17.765625 83.55859375 C15.60613028 88.83735863 11.28066231 92.20434289 6.328125 94.87109375 C-0.12191195 96.60159147 -6.36017856 95.60249554 -12.234375 92.55859375 C-18.02310903 87.57042932 -20.21115841 82.00348763 -21.234375 74.55859375 C-21.37215738 71.68808256 -21.3747209 68.82262977 -21.3671875 65.94921875 C-21.36814423 65.14119812 -21.36910095 64.33317749 -21.37008667 63.50067139 C-21.37076401 61.80301841 -21.368941 60.10536278 -21.36474609 58.40771484 C-21.35936344 55.80300144 -21.36472048 53.19845828 -21.37109375 50.59375 C-21.37043344 48.94140587 -21.36915324 47.28906184 -21.3671875 45.63671875 C-21.36921173 44.85653381 -21.37123596 44.07634888 -21.37332153 43.27252197 C-21.34935434 37.78855243 -21.34935434 37.78855243 -20.234375 35.55859375 C-21.100625 35.33171875 -21.966875 35.10484375 -22.859375 34.87109375 C-26.90250297 33.29876621 -29.30090173 31.77144542 -32.234375 28.55859375 C-33.0840228 25.02184844 -32.88884018 21.86752412 -31.234375 18.55859375 C-27.95469742 16.91875496 -24.86298811 17.38013737 -21.234375 17.55859375 C-21.26917969 16.99011719 -21.30398438 16.42164063 -21.33984375 15.8359375 C-21.53660012 10.22369624 -20.99299109 6.48469392 -18.234375 1.55859375 C-13.19800283 -3.3153148 -5.87265643 -3.78847941 0 0 Z " fill="#96CA38" transform="translate(432.234375,431.44140625)"/>
<path d="M0 0 C2.81009519 1.00875212 3.66697708 1.33395417 5 4 C5.0623616 6.4345226 5.06715176 8.84025805 5.02734375 11.2734375 C5.01469487 12.75260181 5.0023341 14.2317686 4.99023438 15.7109375 C4.96543344 18.04369842 4.93748093 20.37633053 4.90405273 22.70898438 C4.87379938 24.95964367 4.85605788 27.21013936 4.83984375 29.4609375 C4.82638412 30.15585297 4.8129245 30.85076843 4.79905701 31.56674194 C4.7801452 35.22695221 4.98577773 37.88950435 7 41 C8.65 41 10.3 41 12 41 C14.39602187 36.74009508 15.38921374 33.55771541 15.5546875 28.68359375 C15.64169922 26.91918945 15.64169922 26.91918945 15.73046875 25.11914062 C15.82696451 22.66110666 15.91548371 20.20274682 15.99609375 17.74414062 C16.51305578 7.71837708 16.51305578 7.71837708 19.4453125 4.72265625 C23.57846461 1.93562248 25.96652543 1.65874749 31 2 C33.875 3.3125 33.875 3.3125 36 5 C36.95334451 7.86003352 37.16248115 9.81835205 37.24609375 12.796875 C37.29334595 14.22435059 37.29334595 14.22435059 37.34155273 15.68066406 C37.37321533 16.69354492 37.40487793 17.70642578 37.4375 18.75 C37.89458888 30.97071316 39.05073922 42.80911615 41.92578125 54.73046875 C42 57 42 57 40.78515625 59.234375 C38.27304489 61.71900155 36.43115465 61.95685514 33 62.234375 C31 62 31 62 28.125 59.8125 C26.42205773 57.55860582 25.06041131 55.60282775 24 53 C22.948125 54.36125 22.948125 54.36125 21.875 55.75 C18.00566972 60.39979179 13.50075252 63.58474557 7.3984375 64.30859375 C0.64255938 64.59663507 -3.74476062 63.95103927 -9.16015625 59.76953125 C-15.32262091 53.84257479 -17.0064344 45.89679933 -17.4375 37.625 C-17.37155709 32.32025921 -15.66345091 28.96130149 -13.12109375 24.40234375 C-10.08760656 17.90201406 -12.24495753 10.62841934 -14 4 C-9.10043047 0.08034438 -6.27129847 -0.60689985 0 0 Z " fill="#96C937" transform="translate(152,461)"/>
<path d="M0 0 C7.0250593 4.68337287 9.82915527 10.8502227 11.8125 18.875 C13.49336936 28.43677767 13.9867571 38.1812104 14.125 47.875 C14.14272461 48.63433838 14.16044922 49.39367676 14.17871094 50.17602539 C14.17161237 55.35265473 14.17161237 55.35265473 12.48046875 57.8125 C8.70465627 60.21770139 5.16820839 60.33349562 0.8125 59.875 C-2.99000855 56.17619623 -3.81532052 53.12977399 -4.375 47.9375 C-4.44976562 47.28942383 -4.52453125 46.64134766 -4.6015625 45.97363281 C-5.23536858 40.23324001 -5.5803549 34.47147766 -5.84375 28.703125 C-5.99662247 25.67354193 -5.99662247 25.67354193 -8.1875 22.875 C-11.52707308 22.57357084 -11.52707308 22.57357084 -15.1875 23.875 C-20.75146936 30.89570746 -20.84190903 38.73593628 -20.75 47.3125 C-20.73344639 49.623639 -20.73392546 51.93498184 -20.75390625 54.24609375 C-20.74302979 55.25599365 -20.73215332 56.26589355 -20.72094727 57.30639648 C-21.1875 59.875 -21.1875 59.875 -22.99975586 61.67211914 C-26.11437719 63.38462213 -28.64564434 63.75072436 -32.1875 63.875 C-36.45774302 62.1280824 -38.09642127 59.89522571 -40.1875 55.875 C-40.8034668 53.22558594 -40.8034668 53.22558594 -41.13671875 50.359375 C-41.32609009 48.74687866 -41.32609009 48.74687866 -41.51928711 47.10180664 C-41.63667236 45.95446045 -41.75405762 44.80711426 -41.875 43.625 C-42.06171265 41.84887329 -42.06171265 41.84887329 -42.25219727 40.03686523 C-43.06357651 31.67405751 -43.5287693 23.33875038 -43.625 14.9375 C-43.64715576 13.8846582 -43.66931152 12.83181641 -43.69213867 11.74707031 C-43.6716029 4.6287858 -43.6716029 4.6287858 -41.4765625 1.2109375 C-38.80067604 -0.35075733 -37.21051572 -0.63230805 -34.125 -0.5625 C-33.26777344 -0.56121094 -32.41054688 -0.55992187 -31.52734375 -0.55859375 C-28.72232797 -0.03879951 -27.83168818 0.56481154 -26.1875 2.875 C-25.51792504 5.54818858 -25.41387292 8.11325037 -25.1875 10.875 C-24.73375 10.00875 -24.28 9.1425 -23.8125 8.25 C-18.29438248 0.03152709 -9.20524212 -3.24890898 0 0 Z " fill="#96C938" transform="translate(390.1875,458.125)"/>
<path d="M0 0 C5.3370582 3.09339331 5.3370582 3.09339331 6.41015625 5.94921875 C6.68359375 8.015625 6.68359375 8.015625 6.55859375 11.828125 C6.50062747 16.26668564 7.6094681 19.0978321 9.68359375 23.015625 C10.18890625 23.48226563 10.69421875 23.94890625 11.21484375 24.4296875 C15.96159279 29.55516652 14.93379069 39.81587112 15.05859375 46.453125 C15.0846167 47.23437744 15.11063965 48.01562988 15.13745117 48.82055664 C15.14856524 52.35827944 15.00513206 54.55927131 12.94140625 57.48828125 C10.54551601 59.10903053 9.04179992 59.70239693 6.18359375 60.015625 C5.054375 60.1703125 5.054375 60.1703125 3.90234375 60.328125 C1.68359375 60.015625 1.68359375 60.015625 -0.4609375 58.6484375 C-3.24515756 54.69777577 -3.72443053 50.60036861 -4.50390625 45.890625 C-4.66826172 44.99085938 -4.83261719 44.09109375 -5.00195312 43.1640625 C-5.94995274 37.82148978 -6.60346214 32.52811876 -6.96606445 27.11376953 C-7.21871763 24.71789446 -7.21871763 24.71789446 -9.31640625 22.015625 C-13.05320994 22.27040707 -14.83760648 22.55012522 -17.56640625 25.203125 C-20.59784999 30.07508815 -21.58252491 34.43719871 -21.50390625 40.140625 C-21.49359375 41.26597656 -21.48328125 42.39132812 -21.47265625 43.55078125 C-21.32013001 46.93305063 -20.93122557 50.22120301 -20.50390625 53.578125 C-20.0357075 58.64136001 -20.0357075 58.64136001 -22.37890625 61.765625 C-25.8266596 63.23275409 -27.61512891 63.69545145 -31.31640625 63.015625 C-35.55991064 60.51944594 -37.47268425 58.43904214 -39.00390625 53.765625 C-41.77735708 42.78669836 -43.76758165 31.32750979 -44.31640625 20.015625 C-44.35958984 19.37141602 -44.40277344 18.72720703 -44.44726562 18.06347656 C-44.58378264 15.90195724 -44.67345983 13.74240108 -44.75390625 11.578125 C-44.8005542 10.89097412 -44.84720215 10.20382324 -44.89526367 9.49584961 C-44.9375 7.51953125 -44.9375 7.51953125 -44.31640625 4.015625 C-40.96974563 1.08963401 -39.05306517 0.10302521 -34.62890625 -0.421875 C-31.31640625 0.015625 -31.31640625 0.015625 -29.50390625 1.078125 C-27.77983284 3.89108688 -27.09764555 6.83057245 -26.31640625 10.015625 C-25.82011719 9.47292969 -25.32382813 8.93023437 -24.8125 8.37109375 C-18.0639953 1.26403472 -9.94464508 -4.22605491 0 0 Z " fill="#97CB38" transform="translate(238.31640625,456.984375)"/>
<path d="M0 0 C8.05847679 5.99700598 13.14278632 14.04679772 14.6875 24 C15.3950802 35.53900012 14.96169101 46.97493393 8.6875 57 C8.460625 57.86625 8.23375 58.7325 8 59.625 C6.20712963 62.86924163 4.27210797 63.22013381 0.83984375 64.3125 C-1.59956783 65.04741567 -1.59956783 65.04741567 -4.9375 66.625 C-11.69025764 69.37612348 -19.30976387 70.36681035 -26.25 67.75 C-29.3125 66 -29.3125 66 -30.25 63.8125 C-30.270625 63.214375 -30.29125 62.61625 -30.3125 62 C-29.796875 62.144375 -29.28125 62.28875 -28.75 62.4375 C-25.62740429 63.15809901 -22.48699308 63.57266439 -19.3125 64 C-19.58964844 63.46890625 -19.86679687 62.9378125 -20.15234375 62.390625 C-20.51457031 61.68421875 -20.87679688 60.9778125 -21.25 60.25 C-21.60964844 59.55390625 -21.96929687 58.8578125 -22.33984375 58.140625 C-25.25413843 51.7268359 -25.39316884 44.51433508 -23.3359375 37.82421875 C-20.06406171 29.76496641 -16.17672267 21.45434487 -8.3125 17 C-3.42543794 16.05891035 0.35178889 16.57278475 4.6875 19 C2.69664293 14.24406366 0.38957236 10.36091448 -4.3125 8 C-7.8785501 7.08422863 -10.74533953 7.0759765 -14.3125 8 C-24.45051886 14.09564425 -29.1646441 25.04422702 -32.3125 36 C-33.30176883 41.35481642 -33.43537342 46.51782436 -33.375 51.9375 C-33.37048828 52.71673828 -33.36597656 53.49597656 -33.36132812 54.29882812 C-33.34966908 56.19925268 -33.33173877 58.09963706 -33.3125 60 C-35.203125 59.73046875 -35.203125 59.73046875 -37.3125 59 C-41.59951293 52.55348429 -41.01667291 43.33447514 -40.3125 36 C-37.56087018 22.45949392 -30.88925401 9.3490744 -19.625 1 C-13.58338076 -2.48600253 -6.49174743 -1.95977281 0 0 Z " fill="#080B07" transform="translate(354.3125,158)"/>
<path d="M0 0 C1.10601562 -0.01417969 2.21203125 -0.02835937 3.3515625 -0.04296875 C6.2750427 0.17988052 7.90958529 0.66615872 10.375 2.1875 C10.045 3.1775 9.715 4.1675 9.375 5.1875 C8.35853394 5.32998169 8.35853394 5.32998169 7.3215332 5.4753418 C-21.94113737 9.3926655 -21.94113737 9.3926655 -49.625 19.1875 C-49.625 19.5175 -49.625 19.8475 -49.625 20.1875 C-48.305 20.5175 -46.985 20.8475 -45.625 21.1875 C-45.25 23.9375 -45.25 23.9375 -45.625 27.1875 C-49.21145816 30.28489568 -50.83587115 31.1875 -55.625 31.1875 C-55.295 33.4975 -54.965 35.8075 -54.625 38.1875 C-56.605 38.6825 -56.605 38.6825 -58.625 39.1875 C-59.285 37.5375 -59.945 35.8875 -60.625 34.1875 C-67.32544887 57.23934759 -59.65203352 90.44832949 -48.9453125 111.48828125 C-47.625 114.1875 -47.625 114.1875 -47.625 117.1875 C-50.61622835 117.11628028 -52.83652018 116.81751084 -55.21875 114.9140625 C-71.96739878 96.7127248 -70.25988756 61.85754438 -69.5 38.98828125 C-68.69114964 23.40106068 -68.69114964 23.40106068 -64 18.484375 C-61.95627955 16.85269496 -59.87987592 15.51092975 -57.625 14.1875 C-56.92761719 13.75824219 -56.23023437 13.32898438 -55.51171875 12.88671875 C-42.60370492 5.68587511 -27.04315904 3.45759313 -12.625 1.1875 C-11.10519531 0.90712891 -11.10519531 0.90712891 -9.5546875 0.62109375 C-6.33920624 0.14520252 -3.24983286 0.01902712 0 0 Z " fill="#F5F5C4" transform="translate(147.625,415.8125)"/>
<path d="M0 0 C2.5 1.75 2.5 1.75 3.5625 3.625 C3.46817526 6.83204115 2.5048182 8.24397725 0.5 10.75 C-5.82753243 15.28931675 -14.68123184 18.75 -22.5 18.75 C-21.50766673 26.57017857 -19.71560089 33.81796796 -17.08911133 41.22851562 C-15.77192005 45.1107636 -15.11511319 47.82850929 -16.5 51.75 C-18.39467925 53.95027268 -19.90395221 55.45197611 -22.5 56.75 C-24.20702735 56.81996014 -25.91668003 56.83440154 -27.625 56.8125 C-28.53507812 56.80347656 -29.44515625 56.79445313 -30.3828125 56.78515625 C-31.08148438 56.77355469 -31.78015625 56.76195312 -32.5 56.75 C-31.51 56.255 -31.51 56.255 -30.5 55.75 C-30.72139648 55.22269287 -30.94279297 54.69538574 -31.17089844 54.15209961 C-44.19839142 22.92204035 -44.19839142 22.92204035 -41.5 15.75 C-31.84082282 5.32968691 -14.480176 -5.17149143 0 0 Z " fill="#5EAD28" transform="translate(130.5,477.25)"/>
<path d="M0 0 C0.67611328 0.00773437 1.35222656 0.01546875 2.04882812 0.0234375 C3.36496094 0.01828125 4.68109375 0.013125 6.03710938 0.0078125 C9.48835227 0.25563142 11.61507613 0.9205479 14.73632812 2.2734375 C14.69470037 8.60936589 14.62241577 14.94441289 14.52880859 21.27978516 C14.50058313 23.43497763 14.47937647 25.59027393 14.46533203 27.74560547 C14.44392466 30.8439658 14.39728493 33.94107577 14.34570312 37.0390625 C14.34386017 38.48457489 14.34386017 38.48457489 14.34197998 39.95928955 C14.19554676 46.6475033 14.19554676 46.6475033 11.83251953 49.8684082 C8.29383653 52.24030672 4.92677068 52.44803927 0.73632812 52.2734375 C-3.3039411 51.00150089 -4.78152178 50.02160144 -7.07617188 46.4609375 C-9.74775872 39.28983597 -9.4469379 32.01011154 -9.45117188 24.4609375 C-9.46341797 23.32333984 -9.47566406 22.18574219 -9.48828125 21.01367188 C-9.49964442 14.44954567 -9.11344063 8.58861295 -7.26367188 2.2734375 C-4.79824201 -0.19199236 -3.37076933 0.013416 0 0 Z " fill="#5EAD27" transform="translate(463.263671875,472.7265625)"/>
<path d="M0 0 C0.01981934 0.73114014 0.03963867 1.46228027 0.06005859 2.21557617 C0.15552914 5.53990269 0.26511966 8.86361986 0.375 12.1875 C0.4059375 13.33798828 0.436875 14.48847656 0.46875 15.67382812 C0.50742187 16.78564453 0.54609375 17.89746094 0.5859375 19.04296875 C0.6173584 20.06414795 0.6487793 21.08532715 0.68115234 22.13745117 C1.00876795 25.07871688 1.77312194 27.32024003 3 30 C7.7465925 29.54359687 10.25696594 28.83954308 14 26 C16.1875 26.1875 16.1875 26.1875 18 27 C19.72703944 30.45407888 19.35534398 34.21624467 19 38 C16.84050528 43.27876488 12.51503731 46.64574914 7.5625 49.3125 C1.63579734 50.90259096 -3.33645983 49.84931924 -9 48 C-8.01 47.505 -8.01 47.505 -7 47 C-7.25394531 46.40574219 -7.50789063 45.81148437 -7.76953125 45.19921875 C-12.30993751 34.26483215 -17.77722225 20.05057362 -15 8 C-11.04162311 2.8479358 -6.52705102 0 0 0 Z " fill="#60AF2A" transform="translate(431,477)"/>
<path d="M0 0 C2.5 1 2.5 1 4 2 C4 2.66 4 3.32 4 4 C3.23816406 4.1959375 2.47632813 4.391875 1.69140625 4.59375 C0.14259766 5.04234375 0.14259766 5.04234375 -1.4375 5.5 C-2.44683594 5.7784375 -3.45617187 6.056875 -4.49609375 6.34375 C-13.97677206 10.82514086 -19.06520087 18.50421805 -24 27.4375 C-25.12427912 29.41577444 -26.24924062 31.39366129 -27.375 33.37109375 C-27.85710937 34.23661865 -28.33921875 35.10214355 -28.8359375 35.99389648 C-30 38 -30 38 -31 39 C-31.40807542 45.72124218 -30.87346005 52.33986708 -30 59 C-31.32 59.66 -32.64 60.32 -34 61 C-36.69095982 57.89680027 -37.47994171 55.64050411 -37.94921875 51.58203125 C-38.07546631 50.50381104 -38.20171387 49.42559082 -38.33178711 48.31469727 C-38.44917236 47.15897217 -38.56655762 46.00324707 -38.6875 44.8125 C-38.8119751 43.62390381 -38.9364502 42.43530762 -39.06469727 41.21069336 C-39.87463239 32.83176779 -40.34102295 24.47965581 -40.4375 16.0625 C-40.45965576 15.00973877 -40.48181152 13.95697754 -40.50463867 12.87231445 C-40.48410389 5.75378734 -40.48410389 5.75378734 -38.2890625 2.3359375 C-35.61317604 0.77424267 -34.02301572 0.49269195 -30.9375 0.5625 C-30.08027344 0.56378906 -29.22304688 0.56507813 -28.33984375 0.56640625 C-25.53482797 1.08620049 -24.64418818 1.68981154 -23 4 C-22.33042504 6.67318858 -22.22637292 9.23825037 -22 12 C-21.54625 11.13375 -21.0925 10.2675 -20.625 9.375 C-15.91483516 2.35986088 -8.22655121 -1.13469672 0 0 Z " fill="#DDEFA9" transform="translate(387,457)"/>
<path d="M0 0 C0.33 0 0.66 0 1 0 C1.89568003 33.81536595 1.89568003 33.81536595 -8 46 C-14.30709658 52.00878796 -20.91668155 53.21802062 -29.4140625 53.265625 C-32.07043574 52.99276491 -33.71932232 52.34913327 -36 51 C-35.34 50.34 -34.68 49.68 -34 49 C-33.83312552 46.41645782 -33.83312552 46.41645782 -34 44 C-33.32453125 43.76925781 -32.6490625 43.53851562 -31.953125 43.30078125 C-25.50268355 40.94245511 -22.09711651 39.20205808 -18.953125 32.90234375 C-15.97232063 25.9147335 -15.27657583 18.97357998 -14.85888672 11.46240234 C-14.43168525 5.48036465 -14.43168525 5.48036465 -12.1640625 2.95703125 C-9.00524875 1.56008293 -6.40352717 1.6848586 -3 2 C-2.34 2.66 -1.68 3.32 -1 4 C-0.67 2.68 -0.34 1.36 0 0 Z " fill="#5FAD29" transform="translate(282,487)"/>
<path d="M0 0 C-0.21875 1.9140625 -0.21875 1.9140625 -1 4 C-2.96875 4.8359375 -2.96875 4.8359375 -5.5 5.375 C-13.69644748 7.55291319 -19.62101734 11.84011945 -24.7109375 18.58203125 C-26 20 -26 20 -29 21 C-32.15816219 23.87994314 -34.83186789 27.0021949 -35.19921875 31.3671875 C-34.92298357 33.94813112 -34.49823411 36.45263765 -34 39 C-32.34180607 48.86957028 -32.34180607 48.86957028 -34.05078125 51.8046875 C-35.4375 53.1875 -35.4375 53.1875 -38 55 C-42.2769654 40.70321545 -44.09062465 25.65737291 -44.5625 10.75 C-44.62630859 8.91695313 -44.62630859 8.91695313 -44.69140625 7.046875 C-44 4 -44 4 -41.1953125 1.60546875 C-37.43876336 -0.28199054 -35.15172656 -0.54834124 -31 0 C-28.05757486 1.72486991 -27.87901945 3.37567643 -26.8125 6.6875 C-26.544375 7.780625 -26.27625 8.87375 -26 10 C-25.50371094 9.45730469 -25.00742188 8.91460937 -24.49609375 8.35546875 C-18.24958668 1.77707895 -9.3685635 -4.68428175 0 0 Z " fill="#F4F5C2" transform="translate(238,457)"/>
<path d="M0 0 C4.5718626 1.26594297 7.60539063 3.97554336 10.46875 7.68359375 C11.59287249 10.10982479 12.033077 12.01509665 12.46875 14.68359375 C11.829375 14.18859375 11.19 13.69359375 10.53125 13.18359375 C6.34247861 11.13195062 3.04197873 10.66647097 -1.53125 11.68359375 C-10.23354302 16.19296377 -13.59525945 25.87562209 -16.53125 34.68359375 C-17.44173588 43.5197846 -15.47244672 50.8012003 -11.53125 58.68359375 C-21.53829225 57.82091769 -21.53829225 57.82091769 -25.53125 54.68359375 C-30.28849458 42.15008399 -26.70578015 28.46245843 -21.53125 16.68359375 C-16.93777017 8.09816121 -10.66744676 -0.80664335 0 0 Z " fill="#F2F2F2" transform="translate(347.53125,164.31640625)"/>
<path d="M0 0 C3.21946653 1.69445607 5.35803352 4.07891766 7.4375 7.0625 C8.11659986 9.40162173 7.8101799 10.73149627 7 13 C6.01 12.34 5.02 11.68 4 11 C-0.14773451 10.36729474 -2.54503307 10.11070737 -6.16015625 12.3203125 C-14.10901283 18.94683593 -18.00385315 27.28286236 -19.32421875 37.51171875 C-19.65630839 44.80623953 -17.21323774 50.57352452 -14 57 C-19.15115199 56.09628913 -23.793771 54.97750627 -27.7109375 51.35546875 C-31.38143881 44.64846182 -29.79364629 33.9381334 -27.9375 26.75 C-23.30479528 14.0641824 -15.70806774 -2.37601025 0 0 Z " fill="#F2F3F2" transform="translate(221,154)"/>
<path d="M0 0 C4.20709782 1.96489691 7.28729176 4.16975277 9.63671875 8.28125 C10.34257893 11.52820682 10.24551273 13.31446088 8.4609375 16.1484375 C5.0229038 20.43043296 2.21211408 22.84044784 -3.359375 23.52734375 C-9.37823216 23.87157648 -14.26188424 22.50262906 -19.36328125 19.28125 C-22.34478664 16.02869867 -23.0601423 12.71516461 -22.92578125 8.28125 C-21.84148272 4.42596634 -18.59257704 2.39271263 -15.36328125 0.28125 C-10.88943738 -1.95567193 -4.68734036 -1.42557128 0 0 Z " fill="#CFC332" transform="translate(387.36328125,220.71875)"/>
<path d="M0 0 C1.67385953 6.78510916 2.26265998 13.47382283 2.375 20.4375 C2.40078125 21.21851074 2.4265625 21.99952148 2.453125 22.80419922 C2.46538616 26.34230908 2.32173253 28.54337065 0.2578125 31.47265625 C-2.13807774 33.09340553 -3.64179383 33.68677193 -6.5 34 C-7.62921875 34.1546875 -7.62921875 34.1546875 -8.78125 34.3125 C-11 34 -11 34 -13.16796875 32.46875 C-15.50082477 29.32511459 -16.1636833 26.27560003 -16.8125 22.5 C-16.94591797 21.83613281 -17.07933594 21.17226563 -17.21679688 20.48828125 C-18.20565596 15.18968872 -17.92691417 12.58899572 -15.25 8 C-10.80550789 2.07401052 -7.29297567 -0.15854295 0 0 Z " fill="#60AE28" transform="translate(251,483)"/>
<path d="M0 0 C0.495 1.485 0.495 1.485 1 3 C-2.36193202 5.24128801 -4.54294732 5.53528667 -8.5 6.1875 C-16.24966933 7.7919864 -23.47752577 10.48424322 -28.49609375 16.91796875 C-29.58890099 18.92345017 -30.33259573 20.81762898 -31 23 C-31.22042969 23.67675781 -31.44085938 24.35351562 -31.66796875 25.05078125 C-33.38376649 31.34971659 -34.98201386 41.03597228 -32 47 C-35.96 47.99 -39.92 48.98 -44 50 C-44.33 52.64 -44.66 55.28 -45 58 C-45.99 57.67 -46.98 57.34 -48 57 C-49.1845131 53.44646071 -49.26641894 50.72986522 -49 47 C-47.875 45.0625 -47.875 45.0625 -46 44 C-44.00045367 43.95740315 -41.99946959 43.95394176 -40 44 C-40.05220703 42.58460938 -40.05220703 42.58460938 -40.10546875 41.140625 C-40.3601873 29.05968786 -39.72293431 18.19723098 -31 9 C-30.48566406 8.44570313 -29.97132813 7.89140625 -29.44140625 7.3203125 C-21.79514919 -0.05089934 -10.20733149 -3.40244383 0 0 Z " fill="#F5F5C4" transform="translate(300,418)"/>
<path d="M0 0 C4.06662662 1.55271198 5.57519602 2.36279402 8 6 C8.46112012 10.68805452 8.48998541 13.02002918 6.375 17.25 C3.06345977 21.084415 0.52696435 23.7065934 -4.69140625 24.3125 C-9.31419632 24.4109882 -12.97813201 24.48886898 -17 22 C-19.69662378 18.49438908 -19.54044588 14.23067788 -19 10 C-15.31270154 1.46099305 -8.5976985 -0.82364507 0 0 Z " fill="#96CA36" transform="translate(478,443)"/>
<path d="M0 0 C5.30188935 1.76729645 9.304881 3.85425673 13 8 C13.73670837 11.14366398 13.69576603 13.85136389 13 17 C11.25 19.4375 11.25 19.4375 9 21 C8.4225 21.4125 7.845 21.825 7.25 22.25 C3.13085831 23.62304723 -0.85618222 23.76224632 -4.93359375 22.3125 C-9.25859617 20.08024068 -11.79177204 17.41645592 -14 13 C-14.64229603 9.06593679 -14.3912051 7.59355257 -12.1875 4.25 C-8.13945277 0.08629427 -5.71152482 -0.4759604 0 0 Z " fill="#F7C62C" transform="translate(178,206)"/>
<path d="M0 0 C2.81009519 1.00875212 3.66697708 1.33395417 5 4 C5.88897736 13.26190368 4.12019758 22.81838058 3 32 C-3.03538712 31.20402866 -7.91525117 29.7193597 -12 25 C-12.57031914 21.88756069 -12.43917399 19.20812876 -12.18359375 16.05859375 C-11.92353144 11.72606636 -12.88746079 8.17202204 -14 4 C-9.10043047 0.08034438 -6.27129847 -0.60689985 0 0 Z " fill="#E0F0AB" transform="translate(152,461)"/>
<path d="M0 0 C2.93446886 1.41791563 5.43332409 2.98332607 8 5 C7.67 5.99 7.34 6.98 7 8 C6.89643682 9.95647063 6.8450252 11.91590078 6.82421875 13.875 C6.80037109 15.02484375 6.77652344 16.1746875 6.75195312 17.359375 C6.70898755 19.78627921 6.67773536 22.21341908 6.65820312 24.640625 C6.63048828 25.79046875 6.60277344 26.9403125 6.57421875 28.125 C6.55963623 29.17945313 6.54505371 30.23390625 6.5300293 31.3203125 C6 34 6 34 4.17895508 35.8125 C1.0671238 37.50840447 -1.46827229 37.87607973 -5 38 C-7.9375 36.5625 -7.9375 36.5625 -10 35 C-9.49855469 34.5875 -8.99710937 34.175 -8.48046875 33.75 C-6.81311934 32.14297303 -6.81311934 32.14297303 -6.92578125 30.125 C-7.11720703 29.073125 -7.11720703 29.073125 -7.3125 28 C-7.47492188 26.80310547 -7.47492188 26.80310547 -7.640625 25.58203125 C-7.75921875 24.72996094 -7.8778125 23.87789063 -8 23 C-9.21965875 14.13095975 -7.01673921 9.43432945 -1.75 2.23828125 C-0.88375 1.13033203 -0.88375 1.13033203 0 0 Z " fill="#60AE29" transform="translate(363,484)"/>
<path d="M0 0 C1 3 1 3 -0.4375 6.625 C-3.99631588 13.31013678 -9.13424996 19.61429426 -16 23 C-20.56257262 23.72716001 -24.75892103 23.42196685 -29.125 21.9375 C-31 20 -31 20 -31.625 16.625 C-31 13 -31 13 -29.0625 10.125 C-25.47481249 7.63558417 -23.37336328 7.60252237 -19.14453125 7.37109375 C-15.72096352 6.77867311 -14.18398404 4.5583813 -12 2 C-8.26416589 -0.70525918 -4.4454405 -0.14818135 0 0 Z " fill="#F0B329" transform="translate(326,280)"/>
<path d="M0 0 C2 0.25 2 0.25 4 1 C5.76800639 6.30401916 5.26992801 11.94861233 5.3125 17.5 C5.34150391 18.72976563 5.37050781 19.95953125 5.40039062 21.2265625 C5.46381789 30.41863622 4.33062684 38.98242795 -1.375 46.5 C-5.41571525 50.34830024 -8.39276534 52 -14 52 C-13.79375 52.78375 -13.5875 53.5675 -13.375 54.375 C-13.25125 55.24125 -13.1275 56.1075 -13 57 C-13.66 57.66 -14.32 58.32 -15 59 C-18.29714793 58.67028521 -19.6226839 58.3773161 -22 56 C-22.01953125 54.0859375 -22.01953125 54.0859375 -21 52 C-17.83447285 50.06624701 -14.55158567 48.56077173 -11.19921875 46.9765625 C-5.72726418 43.59584331 -3.97095776 39.49217807 -2.2578125 33.48046875 C-0.71409388 26.72382753 -0.6948075 20.21073906 -0.875 13.3125 C-0.91810639 10.99616547 -0.95739355 8.67975555 -0.9921875 6.36328125 C-1.01651855 5.35563721 -1.04084961 4.34799316 -1.06591797 3.30981445 C-1 1 -1 1 0 0 Z " fill="#DAEAA6" transform="translate(262,479)"/>
<path d="M0 0 C2.375 1.5625 2.375 1.5625 4 4 C4.3125 7.25 4.3125 7.25 3 11 C-1.74644516 16.51132485 -8.16142221 21.40433544 -15 24 C-17.765625 24.125 -17.765625 24.125 -20 24 C-19.63142558 16.25993719 -17.89796911 10.10312538 -12.44140625 4.359375 C-8.5564672 0.9879067 -5.15387924 -0.62852186 0 0 Z " fill="#FADB59" transform="translate(469,416)"/>
<path d="M0 0 C1.78083984 -0.01160156 1.78083984 -0.01160156 3.59765625 -0.0234375 C7.16802024 0.40250066 9.11007146 1.18360926 11.9375 3.375 C11.9375 4.035 11.9375 4.695 11.9375 5.375 C11.10347656 5.40078125 10.26945312 5.4265625 9.41015625 5.453125 C-1.3752131 5.9967175 -9.57456277 8.31638858 -17.0625 16.375 C-22.10419033 22.53588163 -25.48779127 28.85876955 -28.0625 36.375 C-29.7125 35.715 -31.3625 35.055 -33.0625 34.375 C-33.51897158 28.66910528 -32.76167584 25.77401992 -29.0625 21.375 C-28.25167969 20.93542969 -27.44085938 20.49585938 -26.60546875 20.04296875 C-23.51988404 18.01909061 -22.64044543 16.24132325 -21.0625 12.9375 C-16.54002143 4.18096623 -10.00219893 -0.06530271 0 0 Z " fill="#F4F4C3" transform="translate(325.0625,459.625)"/>
<path d="M0 0 C1.38294718 0.01329757 2.76582404 0.03715018 4.1484375 0.0703125 C4.85484375 0.07933594 5.56125 0.08835937 6.2890625 0.09765625 C8.03399848 0.12123647 9.77876045 0.15710789 11.5234375 0.1953125 C11.1934375 1.8453125 10.8634375 3.4953125 10.5234375 5.1953125 C7.2234375 5.1953125 3.9234375 5.1953125 0.5234375 5.1953125 C-0.54146763 9.45493302 -0.60267411 13.33148655 -0.57421875 17.6796875 C-0.5728038 18.49528137 -0.57138885 19.31087524 -0.56993103 20.15118408 C-0.56434553 22.74926462 -0.55179571 25.34725813 -0.5390625 27.9453125 C-0.53404562 29.70963417 -0.52948304 31.47395719 -0.52539062 33.23828125 C-0.51438085 37.55732506 -0.49712619 41.87630404 -0.4765625 46.1953125 C-2.4565625 46.6903125 -2.4565625 46.6903125 -4.4765625 47.1953125 C-8.46413421 40.28352153 -7.65973428 32.10003697 -7.6640625 24.3828125 C-7.67630859 23.24521484 -7.68855469 22.10761719 -7.70117188 20.93554688 C-7.71253505 14.37142067 -7.32633126 8.51048795 -5.4765625 2.1953125 C-3.4765625 0.1953125 -3.4765625 0.1953125 0 0 Z " fill="#F4F5C1" transform="translate(461.4765625,472.8046875)"/>
<path d="M0 0 C2.475 0.495 2.475 0.495 5 1 C5.04487549 1.94206299 5.08975098 2.88412598 5.13598633 3.85473633 C5.31083814 7.40207242 5.49670987 10.94849457 5.68969727 14.49487305 C5.77051045 16.02004112 5.84712265 17.54543856 5.91918945 19.07104492 C6.46644423 30.57094354 7.66902021 40.5918966 13 51 C13 52.32 13 53.64 13 55 C9.16524836 54.78087133 8.05835887 54.05971606 5.3125 51.25 C0.20498011 44.07186394 -0.1543062 36.86356662 -0.09765625 28.3203125 C-0.0962413 27.50754852 -0.09482635 26.69478455 -0.09336853 25.85739136 C-0.08780335 23.27988899 -0.0752574 20.7024758 -0.0625 18.125 C-0.0574805 16.36979293 -0.05291838 14.61458448 -0.04882812 12.859375 C-0.03784534 8.57288268 -0.02060492 4.28645643 0 0 Z " fill="#DAEBA4" transform="translate(411,469)"/>
<path d="M0 0 C0.89203125 0.03609375 1.7840625 0.0721875 2.703125 0.109375 C3.71632813 0.17898438 3.71632813 0.17898438 4.75 0.25 C5.08 1.57 5.41 2.89 5.75 4.25 C4.780625 4.724375 3.81125 5.19875 2.8125 5.6875 C-0.05477437 6.95193947 -0.05477437 6.95193947 -1.25 8.25 C-1.3851823 10.67282417 -1.46046394 13.07125563 -1.49609375 15.49609375 C-1.52902865 16.98763616 -1.56224035 18.47917247 -1.59570312 19.97070312 C-1.6431715 22.33207036 -1.68759816 24.69341225 -1.72680664 27.05493164 C-1.76643872 29.32724997 -1.81800177 31.59905574 -1.87109375 33.87109375 C-1.8795079 34.57946884 -1.88792206 35.28784393 -1.89659119 36.01768494 C-2.02332648 41.02332648 -2.02332648 41.02332648 -4.25 43.25 C-5.24 43.25 -6.23 43.25 -7.25 43.25 C-10.05566672 34.83299985 -9.48399957 25.09931497 -9.5625 16.3125 C-9.59150391 15.20326172 -9.62050781 14.09402344 -9.65039062 12.95117188 C-9.65876953 11.88576172 -9.66714844 10.82035156 -9.67578125 9.72265625 C-9.69036377 8.76625244 -9.70494629 7.80984863 -9.7199707 6.82446289 C-8.71353413 1.31128177 -5.21706345 -0.27458229 0 0 Z " fill="#F0F0BE" transform="translate(356.25,457.75)"/>
<path d="M0 0 C2.4668727 1.95376318 4.32039592 3.8493226 5.953125 6.546875 C5.953125 7.866875 5.953125 9.186875 5.953125 10.546875 C2.64360116 9.9350922 0.6804988 8.75476877 -1.984375 6.734375 C-12.88862482 -0.69627143 -24.57492547 -1.68429235 -37.234375 0.546875 C-38.84055702 0.87035781 -40.4455861 1.19998069 -42.046875 1.546875 C-42.046875 0.226875 -42.046875 -1.093125 -42.046875 -2.453125 C-28.3826768 -10.7588141 -12.85908714 -9.08229231 0 0 Z " fill="#0D100C" transform="translate(257.046875,265.453125)"/>
<path d="M0 0 C4.72680478 0.90900092 6.58505514 3.78817385 9.25 7.625 C10.59553453 10.31606907 10.45594114 12.49665422 10.5 15.5 C10.53867188 17.07394531 10.53867188 17.07394531 10.578125 18.6796875 C10.21231646 21.96325464 9.55148525 23.29598502 7.25 25.625 C4.875 26.1875 4.875 26.1875 2.25 25.625 C-0.92715032 22.96506019 -3.24714428 20.48659789 -4.75 16.625 C-5.015625 13.49609375 -5.015625 13.49609375 -5 10.0625 C-5.00515625 8.92683594 -5.0103125 7.79117187 -5.015625 6.62109375 C-4.66278201 2.64123236 -4.03085703 0.91610387 0 0 Z " fill="#080B08" transform="translate(152.75,327.375)"/>
<path d="M0 0 C1.32 0 2.64 0 4 0 C4.08086376 2.93804996 4.1404283 5.87388075 4.1875 8.8125 C4.21263672 9.64587891 4.23777344 10.47925781 4.26367188 11.33789062 C4.27333984 12.14033203 4.28300781 12.94277344 4.29296875 13.76953125 C4.3086792 14.50792236 4.32438965 15.24631348 4.34057617 16.00708008 C3.90043807 18.58259789 3.04020993 19.413369 1 21 C-2.62328619 22.20776206 -5.19611527 22.40040892 -9 22 C-12.84743449 18.29071397 -13.53777788 15.43999754 -13.75 10.1875 C-13.80671875 9.02605469 -13.8634375 7.86460937 -13.921875 6.66796875 C-13.94765625 5.78753906 -13.9734375 4.90710938 -14 4 C-13.01 4 -12.02 4 -11 4 C-11 3.34 -11 2.68 -11 2 C-9.68 1.67 -8.36 1.34 -7 1 C-6.67 2.98 -6.34 4.96 -6 7 C-4.03243548 6.96877057 -4.03243548 6.96877057 -2 6 C-0.6954344 3.00384054 -0.6954344 3.00384054 0 0 Z " fill="#60AF29" transform="translate(400,496)"/>
<path d="M0 0 C1.65 0.33 3.3 0.66 5 1 C5.59681357 5.46947055 5.86041954 9.55449904 5 14 C2.11737349 16.94629898 -1.29719541 18.28496161 -5 20 C-7.7526588 21.89520118 -10.36320101 23.94874136 -13 26 C-13.05401695 23.08308475 -13.09368066 20.16717276 -13.125 17.25 C-13.14175781 16.425 -13.15851563 15.6 -13.17578125 14.75 C-13.18222656 13.95078125 -13.18867188 13.1515625 -13.1953125 12.328125 C-13.20578613 11.5949707 -13.21625977 10.86181641 -13.22705078 10.10644531 C-12.96238856 7.65106287 -12.33334028 6.07332123 -11 4 C-8.6171875 3.390625 -8.6171875 3.390625 -5.875 3.25 C-4.96492188 3.19328125 -4.05484375 3.1365625 -3.1171875 3.078125 C-2.41851562 3.05234375 -1.71984375 3.0265625 -1 3 C-0.67 2.01 -0.34 1.02 0 0 Z " fill="#97CC38" transform="translate(473,474)"/>
<path d="M0 0 C0 1.32 0 2.64 0 4 C-0.94875 4.391875 -1.8975 4.78375 -2.875 5.1875 C-6.5053619 7.2931099 -6.80795652 8.11187449 -8 12 C-8.40116561 14.69803932 -8.40116561 14.69803932 -8.52734375 17.52734375 C-8.59759766 18.56697266 -8.66785156 19.60660156 -8.74023438 20.67773438 C-8.8714952 22.84678702 -8.99911365 25.01606322 -9.12304688 27.18554688 C-9.50538343 32.74837146 -9.82862003 37.22295914 -13 42 C-15.44486068 43.87439318 -16.54789128 44.03229348 -19.625 43.8125 C-22 43 -22 43 -24 40 C-22.576875 39.6596875 -22.576875 39.6596875 -21.125 39.3125 C-17.88354077 38.3383951 -17.88354077 38.3383951 -16.83325195 35.80664062 C-15.91418228 32.71094038 -15.66768338 30.0068789 -15.54296875 26.78125 C-15.48173828 25.60175781 -15.42050781 24.42226563 -15.35742188 23.20703125 C-15.24416393 20.73618544 -15.1425946 18.26477608 -15.05273438 15.79296875 C-14.49729457 5.72905939 -14.49729457 5.72905939 -11.55078125 2.71875 C-7.4184776 -0.06565062 -4.99250782 -0.09245385 0 0 Z " fill="#F2F3C1" transform="translate(183,463)"/>
<path d="M0 0 C0.33 0 0.66 0 1 0 C1.32871094 1.670625 1.32871094 1.670625 1.6640625 3.375 C3.97969607 14.6789809 6.80029799 25.96215974 12.1796875 36.2578125 C13 38 13 38 13 41 C10.00877165 40.92878028 7.78847982 40.63001084 5.40625 38.7265625 C-1.67247802 31.03386317 -6 18.38530376 -6 8 C-5.01 8 -4.02 8 -3 8 C-1.58622659 5.36095629 -0.62759865 2.92879371 0 0 Z " fill="#DCEDA6" transform="translate(87,492)"/>
<path d="M0 0 C1.67542976 0.28604898 3.34385343 0.61781233 5 1 C7.17610255 7.8244636 3.07604018 14.0127075 0 20 C-1.84842711 22.92051484 -3.384176 24.66245515 -6 27 C-8.8125 27.5 -8.8125 27.5 -11 27 C-12 26 -12 26 -12.4375 22.6875 C-12.35973835 15.50750807 -8.19548658 7.84977305 -3.1875 2.8125 C-2.465625 2.214375 -1.74375 1.61625 -1 1 C-0.67 0.67 -0.34 0.34 0 0 Z " fill="#070E08" transform="translate(323,476)"/>
<path d="M0 0 C1.21236328 0.01353516 1.21236328 0.01353516 2.44921875 0.02734375 C3.37154297 0.04474609 3.37154297 0.04474609 4.3125 0.0625 C3.99521556 3.06646716 3.73691316 4.64280255 1.5546875 6.80078125 C-4.36445401 10.73710803 -10.43264465 14.19130022 -16.77197266 17.39770508 C-20.35779734 19.0485358 -20.35779734 19.0485358 -22.6875 22.0625 C-25.3275 22.0625 -27.9675 22.0625 -30.6875 22.0625 C-29.27939205 20.41398338 -27.86913097 18.7672665 -26.44921875 17.12890625 C-25.30160647 15.78281557 -24.17759559 14.41612482 -23.08203125 13.02734375 C-17.2897989 5.88680078 -9.52586814 -0.13805606 0 0 Z " fill="#368737" transform="translate(323.6875,43.9375)"/>
<path d="M0 0 C0.33 1.32 0.66 2.64 1 4 C0.45730469 4.1959375 -0.08539063 4.391875 -0.64453125 4.59375 C-5.00596176 6.41236663 -5.00596176 6.41236663 -8.19921875 9.765625 C-10.1260356 14.54037115 -10.27314366 18.90131831 -10 24 C-10.77085937 24.14695312 -11.54171875 24.29390625 -12.3359375 24.4453125 C-15.35021164 25.11945607 -18.14320348 25.82011278 -21 27 C-22.84179103 30.00689577 -22.84179103 30.00689577 -23 33 C-24.32 32.34 -25.64 31.68 -27 31 C-27.35820896 23.71641791 -27.35820896 23.71641791 -26 21 C-22.72032242 19.36016121 -19.62861311 19.82154362 -16 20 C-16.03480469 19.43152344 -16.06960938 18.86304688 -16.10546875 18.27734375 C-16.30222512 12.66510249 -15.75861609 8.92610017 -13 4 C-9.069488 0.19627871 -5.29991204 -0.14721978 0 0 Z " fill="#F3F3C3" transform="translate(427,429)"/>
<path d="M0 0 C3.64015996 2.71147856 6.47271654 5.20907481 9 9 C8.625 11.1875 8.625 11.1875 8 13 C4.71971723 12.39897689 2.8659952 11.30202957 0.3125 9.1875 C-7.81002637 2.99890848 -14.73936722 1.53631277 -24.83984375 1.2734375 C-28 1 -28 1 -30 -1 C-28 -4 -28 -4 -26.2890625 -4.6640625 C-16.49837789 -6.10092065 -8.27590744 -5.66479226 0 0 Z " fill="#111610" transform="translate(236,297)"/>
<path d="M0 0 C0.33 0 0.66 0 1 0 C1.08636719 1.03898437 1.17273438 2.07796875 1.26171875 3.1484375 C2.22186902 13.18483885 3.8709169 21.04510028 10.5 29 C15.2591358 32.80730864 18.8047396 33.23184448 24.8125 32.625 C25.97394531 32.51414062 27.13539063 32.40328125 28.33203125 32.2890625 C29.21246094 32.19367187 30.09289062 32.09828125 31 32 C27.00011436 36.27573982 24.17129302 37.19037123 18.375 37.4375 C11.80105102 37.37382979 7.71936803 35.53901001 3 31 C-2.4970043 24.28143918 -3.40505151 15.86559056 -3.265625 7.5 C-2.93452253 4.38374149 -2.04647811 2.3739146 0 0 Z " fill="#5FAB27" transform="translate(138,488)"/>
<path d="M0 0 C5.23773666 3.57118409 6.88203298 6.65080553 9.00390625 12.55859375 C10.69637561 16.70680297 13.15835347 19.66639389 16.8125 22.3125 C20.16719001 23.36683115 23.50282424 23.65028242 27 24 C22.38072498 27.66356295 18.9210173 28.50178113 13 28 C6.20299294 24.4015845 2.76980901 19.6923192 0.52734375 12.4921875 C-0.35354846 8.32915615 -0.23845182 4.23031194 0 0 Z " fill="#5FAC27" transform="translate(291,495)"/>
<path d="M0 0 C2.5 1 2.5 1 4 2 C4 2.66 4 3.32 4 4 C3.23816406 4.1959375 2.47632813 4.391875 1.69140625 4.59375 C-8.55192119 7.56060639 -15.65663956 12.70719923 -21 22 C-23 19 -23 19 -22.875 15.6875 C-21.36830896 9.33787347 -18.62278962 6.14908782 -13.25 2.625 C-8.46580286 -0.0705211 -5.42564959 -0.74836546 0 0 Z " fill="#F2F3C1" transform="translate(387,457)"/>
<path d="M0 0 C-0.21875 1.9140625 -0.21875 1.9140625 -1 4 C-2.96875 4.8359375 -2.96875 4.8359375 -5.5 5.375 C-13.78039498 7.57521924 -19.67230304 11.9627889 -24.90625 18.6796875 C-25.2671875 19.11539062 -25.628125 19.55109375 -26 20 C-26.33 20 -26.66 20 -27 20 C-27.29773894 14.93843796 -27.20012691 12.00015864 -24 8 C-17.67505642 1.71612748 -9.25408717 -4.62704359 0 0 Z " fill="#F0F1C0" transform="translate(238,457)"/>
<path d="M0 0 C4.5133494 1.71461144 7.68589615 3.37760742 11 7 C11.7460874 10.14142063 11.69559914 12.85211915 11 16 C9.25 18.4375 9.25 18.4375 7 20 C6.4225 20.4125 5.845 20.825 5.25 21.25 C1.71659976 22.42780008 -1.27490805 22.23651377 -5 22 C-5.99 21.34 -6.98 20.68 -8 20 C-5.03 20 -2.06 20 1 20 C0.7525 18.1128125 0.7525 18.1128125 0.5 16.1875 C-0.11073012 10.7855491 -0.09133564 5.42939662 0 0 Z " fill="#DAC130" transform="translate(180,207)"/>
<path d="M0 0 C0.33 0 0.66 0 1 0 C2.17338014 6.68826679 2.37669513 11.58281623 -1.6953125 17.4375 C-3.41748439 19.66865387 -5.17717843 21.85063018 -7 24 C-7.66 23.67 -8.32 23.34 -9 23 C-9.02887814 19.52085059 -9.04675687 16.04173169 -9.0625 12.5625 C-9.07087891 11.56927734 -9.07925781 10.57605469 -9.08789062 9.55273438 C-9.09111328 8.60849609 -9.09433594 7.66425781 -9.09765625 6.69140625 C-9.10289307 5.81685791 -9.10812988 4.94230957 -9.11352539 4.04125977 C-9 2 -9 2 -8 1 C-5.66666667 1 -3.33333333 1 -1 1 C-0.67 0.67 -0.34 0.34 0 0 Z " fill="#DEEEA9" transform="translate(210,462)"/>
<path d="M0 0 C2.64039409 13.24912034 2.64039409 13.24912034 2 17 C-0.73486967 20.05661905 -2.20163153 20.93974578 -6.3125 21.25 C-7.199375 21.1675 -8.08625 21.085 -9 21 C-8.34 20.67 -7.68 20.34 -7 20 C-7.22816406 19.33613281 -7.45632812 18.67226563 -7.69140625 17.98828125 C-7.97886719 17.10527344 -8.26632813 16.22226562 -8.5625 15.3125 C-8.85253906 14.44238281 -9.14257812 13.57226562 -9.44140625 12.67578125 C-10.0703477 9.66301977 -9.99755349 7.90549561 -9 5 C-7.44140625 3.41796875 -7.44140625 3.41796875 -5.5625 2.1875 C-4.94503906 1.76855469 -4.32757813 1.34960938 -3.69140625 0.91796875 C-2 0 -2 0 0 0 Z " fill="#5FAA26" transform="translate(216,499)"/>
<path d="M0 0 C1.22589844 0.01353516 1.22589844 0.01353516 2.4765625 0.02734375 C3.41628906 0.04474609 3.41628906 0.04474609 4.375 0.0625 C4.375 2.0425 4.375 4.0225 4.375 6.0625 C3.158125 6.289375 1.94125 6.51625 0.6875 6.75 C-3.67102911 7.88801737 -6.05314556 9.20471835 -8.625 13.0625 C-9.02318406 16.43930765 -8.92051726 19.68046914 -8.625 23.0625 C-12.46875 22.2578125 -12.46875 22.2578125 -13.875 20.5 C-15.30489323 15.852847 -15.34398001 11.72750635 -13.4375 7.3125 C-9.58433033 2.5292549 -6.11934973 -0.08741928 0 0 Z " fill="#F3F4C2" transform="translate(473.625,442.9375)"/>
<path d="M0 0 C1 1 1 1 1.4375 3.8125 C1 7 1 7 -1.75 9.375 C-5 11 -5 11 -9 11 C-8.67 13.31 -8.34 15.62 -8 18 C-9.32 18.33 -10.64 18.66 -12 19 C-15.36954662 11.22412318 -15.36954662 11.22412318 -14 6.6875 C-9.86250785 1.12774492 -7.05729025 -0.6785856 0 0 Z " fill="#9ACB3F" transform="translate(101,436)"/>
<path d="M0 0 C0.23641304 11.58423913 0.23641304 11.58423913 -1 16 C-3.74181207 17.80842924 -5.67867293 19 -9 19 C-9.02717692 16.93757383 -9.0464758 14.87504297 -9.0625 12.8125 C-9.07410156 11.66394531 -9.08570313 10.51539063 -9.09765625 9.33203125 C-9.01192832 6.40699414 -8.67849023 3.83683709 -8 1 C-1.125 0 -1.125 0 0 0 Z " fill="#F1F1F1" transform="translate(449,479)"/>
<path d="M0 0 C3.3125 1.8125 3.3125 1.8125 6 4 C6.61875 4.474375 7.2375 4.94875 7.875 5.4375 C9.45931015 7.63793076 9.21394195 9.36138264 9 12 C6.18500128 11.60902796 4.38914738 11.31659448 2.15625 9.5 C-0.42986631 7.70096257 -2.13215947 7.51762109 -5.25 7.3125 C-6.14203125 7.24675781 -7.0340625 7.18101562 -7.953125 7.11328125 C-8.62859375 7.07589844 -9.3040625 7.03851563 -10 7 C-10.33 5.35 -10.66 3.7 -11 2 C-7.29595151 -0.46936566 -4.29739085 -0.67553682 0 0 Z " fill="#0B1008" transform="translate(346,131)"/>
<path d="M0 0 C0.50838564 2.03959477 1.00633886 4.08179138 1.5 6.125 C1.7784375 7.26195312 2.056875 8.39890625 2.34375 9.5703125 C2.97435382 12.86596816 3.30363271 15.66004021 3 19 C0.5 21.875 0.5 21.875 -2 24 C-6.71538713 8.40066901 -6.71538713 8.40066901 -6 3 C-2.84868421 0 -2.84868421 0 0 0 Z " fill="#DDEEA5" transform="translate(202,488)"/>
<path d="M0 0 C0.66 0.66 1.32 1.32 2 2 C1.625 4.125 1.625 4.125 1 6 C0.12988281 6.03867188 0.12988281 6.03867188 -0.7578125 6.078125 C-6.36866127 6.48551336 -9.31952122 7.73454969 -14 11 C-16.375 10.75 -16.375 10.75 -18 10 C-17.92393149 7.33760228 -17.50823016 5.57682564 -15.7265625 3.5546875 C-10.92803741 -0.38776269 -6.07734766 -1.05548086 0 0 Z " fill="#0C1208" transform="translate(226,123)"/>
<path d="M0 0 C0 2.31 0 4.62 0 7 C-0.66 7 -1.32 7 -2 7 C-2.4125 7.969375 -2.825 8.93875 -3.25 9.9375 C-5 13 -5 13 -7.125 13.9375 C-7.74375 13.958125 -8.3625 13.97875 -9 14 C-10 13 -10 13 -10.0625 9.9375 C-10.041875 8.968125 -10.02125 7.99875 -10 7 C-10.99 7.33 -11.98 7.66 -13 8 C-12.03842826 4.44218458 -11.34112089 3.21983346 -8.1875 1.1875 C-5.15461027 0.05759991 -3.18921789 -0.28140158 0 0 Z " fill="#66B22B" transform="translate(403,490)"/>
<path d="M0 0 C0 1.32 0 2.64 0 4 C-7.81816322 6.74493505 -14.67889465 8.67620721 -23 8 C-23 7.01 -23 6.02 -23 5 C-20.2944888 4.15641076 -17.58619457 3.32495229 -14.875 2.5 C-14.11445312 2.26152344 -13.35390625 2.02304687 -12.5703125 1.77734375 C-8.25025382 0.47387777 -4.56693609 -0.291817 0 0 Z " fill="#E8EABA" transform="translate(130,467)"/>
<path d="M0 0 C2.5 1 2.5 1 4 2 C3.67 3.65 3.34 5.3 3 7 C1.96939453 6.93039062 1.96939453 6.93039062 0.91796875 6.859375 C0.01691406 6.82328125 -0.88414062 6.7871875 -1.8125 6.75 C-3.15248047 6.68039062 -3.15248047 6.68039062 -4.51953125 6.609375 C-7.16674709 6.76018967 -7.16674709 6.76018967 -8.82421875 9.015625 C-9.40623047 9.99789063 -9.40623047 9.99789063 -10 11 C-10.99 10.67 -11.98 10.34 -13 10 C-13.33 8.02 -13.66 6.04 -14 4 C-9.10043047 0.08034438 -6.27129847 -0.60689985 0 0 Z " fill="#ECECBD" transform="translate(152,461)"/>
<path d="M0 0 C2.475 0.495 2.475 0.495 5 1 C5.08089542 3.77141717 5.14044062 6.54047819 5.1875 9.3125 C5.22520508 10.49102539 5.22520508 10.49102539 5.26367188 11.69335938 C5.27333984 12.45068359 5.28300781 13.20800781 5.29296875 13.98828125 C5.3086792 14.68477783 5.32438965 15.38127441 5.34057617 16.09887695 C4.900179 18.55720869 3.78150163 19.31504426 2 21 C1.42052719 23.96243726 1.42052719 23.96243726 1.3125 27.1875 C1.24675781 28.27417969 1.18101562 29.36085938 1.11328125 30.48046875 C1.07589844 31.31191406 1.03851563 32.14335937 1 33 C0.67 33 0.34 33 0 33 C0 22.11 0 11.22 0 0 Z " fill="#F6F7C5" transform="translate(411,469)"/>
<path d="M0 0 C0.33 0 0.66 0 1 0 C1.33774332 2.22850277 1.6700187 4.45783467 2 6.6875 C2.185625 7.92886719 2.37125 9.17023438 2.5625 10.44921875 C2.92100411 13.35886371 3.08942256 16.07700022 3 19 C1.02 19.99 1.02 19.99 -1 21 C-4.17175425 17.56464151 -4.45766505 14.84669909 -4.6875 10.25 C-4.75324219 9.07953125 -4.81898438 7.9090625 -4.88671875 6.703125 C-4.92410156 5.81109375 -4.96148437 4.9190625 -5 4 C-4.360625 3.71125 -3.72125 3.4225 -3.0625 3.125 C-0.84793921 2.17176549 -0.84793921 2.17176549 0 0 Z " fill="#D6E8A2" transform="translate(354,497)"/>
<path d="M0 0 C0.33 0 0.66 0 1 0 C0.51086443 8.07917023 -0.30119848 15.51996646 -5.375 22.0625 C-8.26358709 24.19455238 -9.50068353 24.49990235 -13 24 C-13 22.68 -13 21.36 -13 20 C-11.34545992 18.65164816 -9.67703399 17.32026988 -8 16 C-6.20951437 13.13952503 -6.20951437 13.13952503 -4.8125 10 C-4.32394531 8.96875 -3.83539063 7.9375 -3.33203125 6.875 C-2.89246094 5.92625 -2.45289063 4.9775 -2 4 C-1.33861207 2.66404033 -0.67432569 1.32947624 0 0 Z " fill="#EFF0C0" transform="translate(328,483)"/>
<path d="M0 0 C2 0.25 2 0.25 4 1 C5.53579925 5.60739774 5.67621306 10.19457101 5 15 C2.5 17.6875 2.5 17.6875 0 19 C-1.58696844 15.82606311 -1.1431447 12.41825795 -1.125 8.9375 C-1.12886719 8.19177734 -1.13273437 7.44605469 -1.13671875 6.67773438 C-1.12663501 1.12663501 -1.12663501 1.12663501 0 0 Z " fill="#F2F3C1" transform="translate(262,479)"/>
<path d="M0 0 C0.33 0 0.66 0 1 0 C1.33 5.61 1.66 11.22 2 17 C0.68 17.33 -0.64 17.66 -2 18 C-3.91302307 14.73386305 -4.35674661 12.00554752 -4.625 8.25 C-4.69976562 7.26515625 -4.77453125 6.2803125 -4.8515625 5.265625 C-4.90054687 4.51796875 -4.94953125 3.7703125 -5 3 C-4.360625 2.690625 -3.72125 2.38125 -3.0625 2.0625 C-1.06389179 1.1654837 -1.06389179 1.1654837 0 0 Z " fill="#D9EAA4" transform="translate(459,502)"/>
<path d="M0 0 C-1.02310746 5.69440072 -2.58548923 10.67902559 -5.046875 15.9140625 C-6.24895204 18.54483766 -7.15005519 21.23767935 -8 24 C-8.66 24 -9.32 24 -10 24 C-10.66 24.66 -11.32 25.32 -12 26 C-11.48302429 21.0887308 -9.86808101 17.043326 -7.9765625 12.5390625 C-7.07348093 10.19105042 -6.46417892 7.95485938 -5.9375 5.5 C-4.94641701 1.79995682 -4.12987371 0 0 0 Z " fill="#89BA45" transform="translate(182,148)"/>
<path d="M0 0 C0.53625 0.268125 1.0725 0.53625 1.625 0.8125 C2 3.5625 2 3.5625 1.625 6.8125 C-1.0625 9.25 -1.0625 9.25 -4.375 10.8125 C-7.25 10.5625 -7.25 10.5625 -9.375 9.8125 C-9.16578357 6.15121248 -8.22641649 4.33301181 -5.5625 1.9375 C-2.375 -0.1875 -2.375 -0.1875 0 0 Z " fill="#F5F9BE" transform="translate(100.375,436.1875)"/>
<path d="M0 0 C1.69057475 3.38114949 2.45815467 5.6299825 3.125 9.25 C3.29257813 10.14203125 3.46015625 11.0340625 3.6328125 11.953125 C3.75398437 12.62859375 3.87515625 13.3040625 4 14 C0.30902107 13.4674707 -0.71510215 13.31569762 -3.3125 10.4375 C-3.869375 9.633125 -4.42625 8.82875 -5 8 C-3.35 5.36 -1.7 2.72 0 0 Z " fill="#A9D647" transform="translate(205,505)"/>
<path d="M0 0 C0.598125 0.226875 1.19625 0.45375 1.8125 0.6875 C2.1758218 7.10618512 2.1758218 7.10618512 0.5625 9.6875 C-1.1875 10.6875 -1.1875 10.6875 -3.375 10.375 C-3.973125 10.148125 -4.57125 9.92125 -5.1875 9.6875 C-5.5508218 3.26881488 -5.5508218 3.26881488 -3.9375 0.6875 C-2.1875 -0.3125 -2.1875 -0.3125 0 0 Z " fill="#D4F368" transform="translate(245.1875,489.3125)"/>
<path d="M0 0 C0.80566406 0.00257813 1.61132812 0.00515625 2.44140625 0.0078125 C3.64603516 0.00394531 3.64603516 0.00394531 4.875 0 C7.00390625 0.1328125 7.00390625 0.1328125 9.00390625 1.1328125 C8.43045688 4.00005936 8.14245475 4.994264 6.00390625 7.1328125 C3.62890625 7.0703125 3.62890625 7.0703125 1.00390625 6.1328125 C-1.30859375 3.5703125 -1.30859375 3.5703125 -2.99609375 1.1328125 C-1.99609375 0.1328125 -1.99609375 0.1328125 0 0 Z " fill="#E2E4B4" transform="translate(287.99609375,459.8671875)"/>
<path d="M0 0 C1.32 0.66 2.64 1.32 4 2 C3.25 7.75 3.25 7.75 1 10 C-1.125 9.625 -1.125 9.625 -3 9 C-3.36923077 3.46153846 -3.36923077 3.46153846 -1.5 1.125 C-1.005 0.75375 -0.51 0.3825 0 0 Z " fill="#D1F265" transform="translate(396,494)"/>
<path d="M0 0 C0.66 0.33 1.32 0.66 2 1 C-4.27 7.27 -10.54 13.54 -17 20 C-17.66 19.67 -18.32 19.34 -19 19 C-13.0763504 12.14630879 -6.85369121 5.9236496 0 0 Z " fill="#2C2E2D" transform="translate(82,89)"/>
<path d="M0 0 C2.625 0.375 2.625 0.375 5 1 C5.125 3.375 5.125 3.375 5 6 C4.34 6.66 3.68 7.32 3 8 C0.375 7.625 0.375 7.625 -2 7 C-2.125 4.625 -2.125 4.625 -2 2 C-1.34 1.34 -0.68 0.68 0 0 Z " fill="#F7F9C2" transform="translate(168,506)"/>
<path d="M0 0 C-0.35401103 3.18609925 -0.83027036 4.79066678 -2.875 7.3125 C-5 9 -5 9 -8 9 C-7.64598897 5.81390075 -7.16972964 4.20933322 -5.125 1.6875 C-3 0 -3 0 0 0 Z " fill="#F8FAC4" transform="translate(282,431)"/>
<path d="M0 0 C0 1.98 0 3.96 0 6 C-1.65614657 6.38218767 -3.32457024 6.71395102 -5 7 C-6 6 -6 6 -6.0625 2.9375 C-6.041875 1.968125 -6.02125 0.99875 -6 0 C-3.50907189 -1.24546405 -2.58919267 -0.7767578 0 0 Z " fill="#E2E2E2" transform="translate(350,189)"/>
<path d="M0 0 C2.125 0.375 2.125 0.375 4 1 C4 2.98 4 4.96 4 7 C2.34385343 7.38218767 0.67542976 7.71395102 -1 8 C-2 7 -2 7 -2.1875 4.5625 C-2 2 -2 2 0 0 Z " fill="#E2E2E2" transform="translate(216,176)"/>
<path d="M0 0 C2.1640625 0.0234375 2.1640625 0.0234375 4.625 0.375 C5.85089844 0.54128906 5.85089844 0.54128906 7.1015625 0.7109375 C7.72804687 0.80632812 8.35453125 0.90171875 9 1 C9 1.99 9 2.98 9 4 C8.31292969 4.04898438 7.62585938 4.09796875 6.91796875 4.1484375 C6.01691406 4.22320312 5.11585938 4.29796875 4.1875 4.375 C3.29417969 4.44460937 2.40085938 4.51421875 1.48046875 4.5859375 C-1.24398499 4.86645036 -1.24398499 4.86645036 -4 7 C-2.92598892 4.08482708 -2.22189824 2.22189824 0 0 Z " fill="#8AB849" transform="translate(184,125)"/>
<path d="M0 0 C-1.38956025 3.35810395 -2.82526467 5.18586552 -6 7 C-8.75 7.1875 -8.75 7.1875 -11 7 C-11 6.34 -11 5.68 -11 5 C-9.35546875 3.7109375 -9.35546875 3.7109375 -7.1875 2.375 C-6.47980469 1.92898438 -5.77210938 1.48296875 -5.04296875 1.0234375 C-3 0 -3 0 0 0 Z " fill="#D4E49D" transform="translate(448,503)"/>
<path d="M0 0 C0.33 0 0.66 0 1 0 C1.31772575 8.26086957 1.31772575 8.26086957 -1 11 C-4.125 11.75 -4.125 11.75 -7 12 C-7 11.34 -7 10.68 -7 10 C-6.21625 9.236875 -5.4325 8.47375 -4.625 7.6875 C-2.09947479 5.10184324 -1.06592614 3.39158318 0 0 Z " fill="#5EA426" transform="translate(448,459)"/>
<path d="M0 0 C1.98 0.495 1.98 0.495 4 1 C4 2.65 4 4.3 4 6 C2.68 6.33 1.36 6.66 0 7 C-1.125 2.25 -1.125 2.25 0 0 Z " fill="#F6F9C2" transform="translate(89,448)"/>
<path d="M0 0 C0.66 0.33 1.32 0.66 2 1 C-1.96 4.96 -5.92 8.92 -10 13 C-10 8.83248505 -7.76127698 6.85829482 -5 4 C-3.36927384 2.62294236 -1.7133562 1.27277889 0 0 Z " fill="#B6CA9E" transform="translate(241,205)"/>
<path d="M0 0 C0.33 0.99 0.66 1.98 1 3 C1.66 3 2.32 3 3 3 C1.515 9.435 1.515 9.435 0 16 C-0.33 16 -0.66 16 -1 16 C-1.09688221 10.55306686 -1.12862175 5.36095333 0 0 Z " fill="#232E1B" transform="translate(80,153)"/>
<path d="M0 0 C-0.33 1.32 -0.66 2.64 -1 4 C-3.64 4 -6.28 4 -9 4 C-9.33 3.34 -9.66 2.68 -10 2 C-8.7090864 1.66376204 -7.41723903 1.33110751 -6.125 1 C-5.40570313 0.814375 -4.68640625 0.62875 -3.9453125 0.4375 C-2 0 -2 0 0 0 Z " fill="#A0CF45" transform="translate(127,472)"/>
<path d="M0 0 C0.66 0.33 1.32 0.66 2 1 C0.88121617 2.17262904 -0.24523051 3.33795138 -1.375 4.5 C-2.00148437 5.1496875 -2.62796875 5.799375 -3.2734375 6.46875 C-5 8 -5 8 -7 8 C-5.50902342 4.2047869 -3.24299151 2.38957269 0 0 Z " fill="#2E2F2F" transform="translate(143,310)"/>
<path d="M0 0 C0.61875 0.639375 1.2375 1.27875 1.875 1.9375 C3.82597612 4.03883584 3.82597612 4.03883584 6 5 C6.33 4.01 6.66 3.02 7 2 C7 3.32 7 4.64 7 6 C5.1875 6.6875 5.1875 6.6875 3 7 C1.25 5.8125 1.25 5.8125 0 4 C0 2.68 0 1.36 0 0 Z " fill="#A4CB57" transform="translate(291,491)"/>
<path d="M0 0 C0 3 0 3 -1.53125 4.60546875 C-2.1809375 5.12753906 -2.830625 5.64960938 -3.5 6.1875 C-4.1496875 6.71730469 -4.799375 7.24710937 -5.46875 7.79296875 C-5.9740625 8.19128906 -6.479375 8.58960938 -7 9 C-5.64978174 4.58110387 -3.73884332 2.65654657 0 0 Z " fill="#E4E4BC" transform="translate(373,460)"/>
<path d="M0 0 C0.99 0.33 1.98 0.66 3 1 C2.67 2.65 2.34 4.3 2 6 C1.34 6 0.68 6 0 6 C-0.66 6.66 -1.32 7.32 -2 8 C-1.125 2.25 -1.125 2.25 0 0 Z " fill="#8DBD48" transform="translate(172,166)"/>
</svg>